<?xml version="1.0" encoding="utf-8"?>
<!-- Generator: Adobe Illustrator 26.1.0, SVG Export Plug-In . SVG Version: 6.00 Build 0)  -->
<svg version="1.1" id="Layer_1" xmlns="http://www.w3.org/2000/svg" xmlns:xlink="http://www.w3.org/1999/xlink" x="0px" y="0px"
	 viewBox="0 0 841.9 595.3" style="enable-background:new 0 0 841.9 595.3;" xml:space="preserve">
<style type="text/css">
	.st0{clip-path:url(#SVGID_00000183215836835379970130000006719714122214276281_);fill:#DBD4CB;}
	.st1{fill:#555442;}
	.st2{clip-path:url(#SVGID_00000114039420638751941170000016862456225073792932_);fill:none;stroke:#555442;stroke-width:0.5;}
	.st3{fill:none;stroke:#555442;stroke-width:0.5;}
	.st4{clip-path:url(#SVGID_00000028300107921164931290000008586559551723916718_);fill:none;stroke:#6DACC7;stroke-width:0.5;}
	.st5{clip-path:url(#SVGID_00000121244033420041161930000013091164582233817773_);fill:#1B1E33;}
	.st6{fill:none;stroke:#6DACC7;}
	.st7{clip-path:url(#SVGID_00000175294067157265899070000010726385695536167575_);fill:none;stroke:#41AD49;}
	.st8{fill:none;stroke:#58595B;}
	.st9{clip-path:url(#SVGID_00000060016520414482129710000015211444373256318095_);fill:none;stroke:#BD9F8C;stroke-width:0.5;}
	.st10{clip-path:url(#SVGID_00000060016520414482129710000015211444373256318095_);fill:#555442;}
	.st11{clip-path:url(#SVGID_00000060016520414482129710000015211444373256318095_);fill:none;stroke:#E8E4DD;stroke-width:0.9;}
	.st12{clip-path:url(#SVGID_00000127036246651531353030000013868431891560226717_);}
</style>
<g>
	<defs>
		<rect id="SVGID_1_" x="59.7" y="0.2" width="721.5" height="595.5"/>
	</defs>
	<clipPath id="SVGID_00000129891058057626398790000014281842338221442441_">
		<use xlink:href="#SVGID_1_"  style="overflow:visible;"/>
	</clipPath>
	<path style="clip-path:url(#SVGID_00000129891058057626398790000014281842338221442441_);fill:#DBD4CB;" d="M569.6,312
		c0,0,16.8-5,23,4.6c6.2,9.6,3.8,23-1.7,30.7c-5.5,7.7-23,33,16.1,58.8c18.5,12.2,28.4,5.1,35.6-13.5c7.2-18.7,29.5-15.1,41.1-26.8
		c11.7-11.7,9.5-38.5,17-55.4c7.5-16.9,10.9-37.8-32.9-25.6C649.9,289.7,569.6,312,569.6,312"/>
	<path style="clip-path:url(#SVGID_00000129891058057626398790000014281842338221442441_);fill:#DBD4CB;" d="M781.2,424.5
		c0,0-39.8,22.4-69.6,26.1s-54.9-5.7-67.2-20c-6.1-7.1-6.8-16.6,0-25.1c6.4-8.1,4.4-17.2,15.1-22.6c8.5-4.3,23.9-7.4,33-17.3
		c12.9-13.8,5.5-37.4,17.9-55.9c8.1-12.1,38.7-28.9,70.2-14.5"/>
	<path style="clip-path:url(#SVGID_00000129891058057626398790000014281842338221442441_);fill:#DBD4CB;" d="M259.5,595
		c0,0,48.5-42.8,83.5-38.5c35,4.4,74.5-24.2,91.5-24.2c33.7,0,46.1,24.2,80.7,24.2s36.9,25.8,80.2,26.8c21.7,0.5,55.1-6.7,92.9-8.7
		c37.9-2,82.4,21,82.4,21L259.5,595z"/>
</g>
<g>
	<path class="st1" d="M136.3,21.2l0.9-1.5h0.9l-1.3,2.1l1.3,2.2h-0.9l-0.9-1.6l-0.9,1.6h-0.9l1.3-2.2l-1.3-2.1h0.9L136.3,21.2z"/>
</g>
<g>
	<path class="st1" d="M136.4,75.8l0.9-2.2h0.8l-1.5,3.5l-0.1,0.3c-0.2,0.3-0.5,0.5-0.9,0.5l-0.3,0l0-0.6c0,0,0.1,0,0.2,0
		c0.2,0,0.4-0.1,0.4-0.3l0.2-0.4l-1.5-3.1h0.8L136.4,75.8z"/>
</g>
<g>
	<path class="st1" d="M162.8,47.3c0-0.2-0.1-0.3-0.2-0.5s-0.3-0.2-0.6-0.2c-0.2,0-0.4,0.1-0.5,0.2s-0.2,0.3-0.2,0.4h-0.7
		c0-0.2,0.1-0.4,0.2-0.6s0.3-0.3,0.5-0.4s0.5-0.2,0.8-0.2c0.5,0,0.9,0.1,1.1,0.3s0.4,0.5,0.4,0.9c0,0.2-0.1,0.4-0.2,0.5
		s-0.3,0.3-0.5,0.4c0.2,0.1,0.4,0.2,0.5,0.4s0.2,0.4,0.2,0.6c0,0.4-0.1,0.7-0.4,0.9s-0.7,0.3-1.2,0.3c-0.3,0-0.6-0.1-0.8-0.2
		s-0.4-0.3-0.5-0.4s-0.2-0.4-0.2-0.6h0.7c0,0.2,0.1,0.3,0.2,0.5s0.3,0.2,0.6,0.2c0.3,0,0.5-0.1,0.6-0.2s0.2-0.3,0.2-0.5
		c0-0.2-0.1-0.4-0.2-0.5s-0.3-0.2-0.6-0.2h-0.5v-0.6h0.5C162.6,47.9,162.8,47.7,162.8,47.3z"/>
</g>
<g>
	<path class="st1" d="M111.1,46.7h-2v1h0.9c0.3,0,0.6,0.1,0.8,0.2s0.4,0.3,0.5,0.5s0.2,0.4,0.2,0.7c0,0.4-0.1,0.7-0.4,1
		s-0.6,0.4-1.1,0.4h-1.6v-4.3h2.7V46.7z M109.1,48.3v1.4h0.9c0.2,0,0.4-0.1,0.6-0.2c0.1-0.1,0.2-0.3,0.2-0.5c0-0.2-0.1-0.4-0.2-0.5
		c-0.1-0.1-0.3-0.2-0.6-0.2H109.1z"/>
</g>
<g>
	<defs>
		<rect id="SVGID_00000033333579593157906570000015036105013604792732_" x="59.7" y="0.2" width="721.5" height="595.5"/>
	</defs>
	<clipPath id="SVGID_00000067951580871630223720000017502271637396540077_">
		<use xlink:href="#SVGID_00000033333579593157906570000015036105013604792732_"  style="overflow:visible;"/>
	</clipPath>
	
		<ellipse style="clip-path:url(#SVGID_00000067951580871630223720000017502271637396540077_);fill:none;stroke:#555442;stroke-width:0.5;" cx="136.3" cy="48.7" rx="8.6" ry="8.8"/>
</g>
<line class="st3" x1="136.3" y1="32.9" x2="136.3" y2="64.4"/>
<polygon class="st1" points="136.3,28.2 134,34.5 136.3,32.9 138.6,34.5 "/>
<polygon class="st1" points="136.3,69.1 138.6,62.8 136.3,64.4 134,62.8 "/>
<line class="st3" x1="152.1" y1="48.7" x2="120.6" y2="48.7"/>
<polygon class="st1" points="156.8,48.7 150.5,46.4 152.1,48.7 150.5,51 "/>
<polygon class="st1" points="115.9,48.7 122.2,51 120.6,48.7 122.2,46.4 "/>
<g>
	<defs>
		<rect id="SVGID_00000055666657452335877390000006725028212439680953_" x="59.7" y="0.2" width="721.5" height="595.5"/>
	</defs>
	<clipPath id="SVGID_00000018949733362483260670000007187765853427571896_">
		<use xlink:href="#SVGID_00000055666657452335877390000006725028212439680953_"  style="overflow:visible;"/>
	</clipPath>
	
		<path style="clip-path:url(#SVGID_00000018949733362483260670000007187765853427571896_);fill:none;stroke:#6DACC7;stroke-width:0.5;" d="
		M60.5,500.8c22.6-8.6,42.1-8.9,42.1-8.9s25.9-11,38.1-12.2c12.3-1.2,34.3-12.4,34.3-12.4s11.8-4.4,19.5-4.5
		c7.6-0.1,19.7-4.3,21.4-4.2c3.5,0.2,3.5,1,12.2,1c8.7,0,19.8,0.8,30.6,3.8c10.8,3,16,2.1,23.3,3.9c7.3,1.9,19.1,7.4,25.8,7.9
		c6.6,0.5,34.5,6.5,43.2,7.9c8.7,1.4,11.1,4.6,27.2,6.7c16,2.1,35.9,4.9,36.9,5.5c1,0.7,11.5-0.2,18.1,0.9
		c6.6,1.2,30.6,7.6,38.6,9.5c8,1.8,19.1,4.9,34.8,4.6c15.7-0.2,36.6-2.1,45.9-2.8c9.4-0.7,8.7-4.6,12.9-6c4.2-1.4,7.7-2.3,8.4-0.7
		c0.7,1.6,7.7-1.6,12.5-2.5c4.9-0.9,16.8-4.9,18.4-6c1.6-1.2,11.5-4.2,21.2-2.1c9.7,2.1,11.5,3.9,15.7,4.9s6.3,2.3,8.4,1.2
		c2.1-1.2,9.4-2.5,10.8-5.1c1.4-2.5,6.3-6.7,9.7-6.7c3.5,0,10.8-5.3,14.6-5.3c3.8,0,7.7,1.6,12.9,1.8c5.2,0.2,8.7,1.8,16.4,2.1
		c7.7,0.2,14.3,0.2,20.2-1.8c5.9-2,8.7-7.4,12.5-6.9c3.8,0.5,7,3.2,9.1,6c2.1,2.8,3.5,1.8,5.2,3c1.7,1.2,3.1,7.2,6.6,8.1
		c3.5,0.9,9.7,1.2,12.5,3.9v4.9c0,0-8-2.3-11.8-3c-3.8-0.7-3.5-3.9-8-8.3c-4.5-4.4-5.9-4.4-9.7-4.4c-3.8,0-10.8,2.3-15,0
		c-2.1-1.2-1,2.1-8.4,1.4c-7.3-0.7-7,1.2-11.1,0.7c-4.2-0.5-18.1-2.1-20.5-2.1c-2.4,0-8-1.2-11.1-1.2s-12.5,2.5-13.9,4.6
		c-1.4,2.1-3.1,3.9-5.9,5.1c-2.8,1.2-4.2,3.9-7.3,4.9c-3.1,0.9-7.3,1.4-7.3,1.4s5.2,3.2,10.8,6.9c5.6,3.7,9.7,4.5,15.7,4.5
		c5.9,0,18.1-2.2,21.9-3.3c3.8-1.2,8.7-1.6,13.6,0.5c4.9,2.1,14.3,6.2,15.3,9.2c1,3,8.4,8.6,13.2,8.6c4.9,0,9.4,0,12.9-4.2
		c3.5-4.2,10.1-8.3,13.6-9.9c3.5-1.6,4.5-3.5,6.6-5.8c2.1-2.3,6.6-4.4,6.6-4.4v1.8c0,0-3.1,1.6-4.2,3.9s-3.8,5.5-9.4,7.6
		c-5.6,2.1-10.8,7.2-12.5,8.6c-1.7,1.4-6.6,7.1-14.6,4.9c-8-2.2-10.1-5.5-13.6-7.6s-10.4-6.9-16.7-9c-6.3-2.1-11.8-2.1-16-0.5
		c-4.2,1.6-20.9,1.8-24.7,0.7c-3.8-1.2-20.9-9.9-22.6-10.9c-1.7-0.9-14.6-1.2-18.1-3.5c-3.5-2.3-16-0.2-20.2,0.7
		c-4.2,0.9-24.7,9-30.6,10.9c-5.9,1.9-10.4,6.2-14.6,6c-4.2-0.2-58.5,3.5-61.6,3.5c-3.1,0-19.1-2.5-26.8-4.4
		c-7.7-1.8-38.3-6-45.6-7.6c-7.3-1.6-51.9-9.8-61.6-11.3c-9.7-1.5-36.2-7.4-43.5-9c-7.3-1.6-16.7-2.8-21.9-4.9
		c-5.2-2-28.2-6-37.9-8.1c-9.7-2.1-32.7-3.7-35.2-3.9c-2.4-0.2-13.2-2.2-15.6-2c-2.4,0.2-23.8,3.3-23.8,3.3s-14.3,7.7-27.9,12.4
		c-13.6,4.7-37.4,8.3-42.9,10.7c-5.4,2.4-17.8,9.5-31,7.1c-13.2-2.4-14.7,1.3-20.7,3c-6,1.6-6.3,3.3-6.3,3.3"/>
	
		<path style="clip-path:url(#SVGID_00000018949733362483260670000007187765853427571896_);fill:none;stroke:#6DACC7;stroke-width:0.5;" d="
		M738.7,482.4c0,0,1.1-0.6,3.2-1.2c2.2-0.6,3.2-3.8,5.4-3.4c2.2,0.5,5.4,2.4,4.3,3.5c-1.1,1.1-1.2,1.1-3.8,1.1
		S742.5,483.8,738.7,482.4z"/>
</g>
<g>
	<path class="st1" d="M608.9,347l1-2h0.8l-1.4,2.7v1.6h-0.7v-1.6l-1.4-2.7h0.8L608.9,347z"/>
	<path class="st1" d="M614.6,349.2h-0.7v-1.9h-1.9v1.9h-0.7V345h0.7v1.8h1.9V345h0.7V349.2z"/>
	<path class="st1" d="M619.4,350.3h-0.7v-1h-2.8v1h-0.7l0-1.6h0.3c0.2-0.2,0.3-0.4,0.4-0.7c0.1-0.3,0.2-0.7,0.2-1.1l0.1-1.9h2.7v3.7
		h0.5L619.4,350.3z M616.4,348.6h1.8v-3.1h-1.2l-0.1,1.2C616.8,347.6,616.7,348.2,616.4,348.6z"/>
	<path class="st1" d="M620.6,347.9c0,0.3,0.1,0.5,0.3,0.7s0.4,0.2,0.7,0.2c0.3,0,0.5-0.1,0.7-0.3c0.2-0.2,0.3-0.5,0.3-1H621v-0.6
		h1.5c0-0.4-0.1-0.7-0.3-1c-0.2-0.2-0.4-0.3-0.7-0.3c-0.3,0-0.5,0.1-0.6,0.2s-0.2,0.4-0.3,0.7h-0.7c0-0.5,0.2-0.8,0.5-1.1
		s0.7-0.4,1.1-0.4c0.3,0,0.7,0.1,0.9,0.2s0.5,0.4,0.6,0.7c0.1,0.3,0.2,0.7,0.2,1.1v0.4c0,0.4-0.1,0.8-0.2,1.1
		c-0.1,0.3-0.3,0.5-0.6,0.7s-0.6,0.2-0.9,0.2c-0.5,0-0.9-0.1-1.2-0.4c-0.3-0.3-0.5-0.6-0.5-1.1H620.6z"/>
	<path class="st1" d="M627.3,347.8c0,0.5-0.2,0.8-0.5,1.1c-0.3,0.3-0.7,0.4-1.2,0.4c-0.3,0-0.6-0.1-0.9-0.2
		c-0.3-0.2-0.5-0.4-0.6-0.7s-0.2-0.6-0.2-1v-0.4c0-0.4,0.1-0.8,0.2-1.1s0.3-0.5,0.6-0.7c0.3-0.2,0.6-0.2,0.9-0.2
		c0.5,0,0.8,0.1,1.1,0.4c0.3,0.3,0.5,0.6,0.5,1.1h-0.7c0-0.3-0.1-0.5-0.3-0.7c-0.1-0.1-0.4-0.2-0.6-0.2c-0.3,0-0.6,0.1-0.7,0.4
		c-0.2,0.2-0.3,0.6-0.3,1v0.4c0,0.5,0.1,0.8,0.2,1.1c0.2,0.2,0.4,0.4,0.7,0.4c0.3,0,0.5-0.1,0.7-0.2s0.2-0.3,0.3-0.7H627.3z"/>
	<path class="st1" d="M631.3,349.2h-0.7v-1.9h-1.9v1.9h-0.7V345h0.7v1.8h1.9V345h0.7V349.2z"/>
	<path class="st1" d="M634.8,345h0.7v4.3h-0.7v-3l-1.9,3h-0.7V345h0.7v3L634.8,345z"/>
	<path class="st1" d="M639,345h0.7v4.3H639v-3l-1.9,3h-0.7V345h0.7v3L639,345z M639.1,343.9c0,0.2-0.1,0.4-0.3,0.6s-0.4,0.2-0.7,0.2
		s-0.5-0.1-0.7-0.2s-0.3-0.4-0.3-0.6h0.5c0,0.1,0,0.2,0.1,0.3c0.1,0.1,0.2,0.1,0.3,0.1s0.2,0,0.3-0.1c0.1-0.1,0.1-0.2,0.1-0.3H639.1
		z"/>
	<path class="st1" d="M642.2,345h0.7v3.7h1.9V345h0.7v3.7h0.5l-0.1,1.6h-0.7v-1h-3.1V345z"/>
	<path class="st1" d="M647.3,347.9c0,0.3,0.1,0.5,0.3,0.7s0.4,0.2,0.7,0.2c0.3,0,0.5-0.1,0.7-0.3c0.2-0.2,0.3-0.5,0.3-1h-1.5v-0.6
		h1.5c0-0.4-0.1-0.7-0.3-1c-0.2-0.2-0.4-0.3-0.7-0.3c-0.3,0-0.5,0.1-0.6,0.2s-0.2,0.4-0.3,0.7h-0.7c0-0.5,0.2-0.8,0.5-1.1
		s0.7-0.4,1.1-0.4c0.3,0,0.7,0.1,0.9,0.2s0.5,0.4,0.6,0.7c0.1,0.3,0.2,0.7,0.2,1.1v0.4c0,0.4-0.1,0.8-0.2,1.1
		c-0.1,0.3-0.3,0.5-0.6,0.7s-0.6,0.2-0.9,0.2c-0.5,0-0.9-0.1-1.2-0.4c-0.3-0.3-0.5-0.6-0.5-1.1H647.3z"/>
	<path class="st1" d="M650.6,345h0.7v3.7h1.9V345h0.7v3.7h0.5l-0.1,1.6h-0.7v-1h-3.1V345z"/>
	<path class="st1" d="M655.7,347.9c0,0.3,0.1,0.5,0.3,0.7s0.4,0.2,0.7,0.2c0.3,0,0.5-0.1,0.7-0.3c0.2-0.2,0.3-0.5,0.3-1h-1.5v-0.6
		h1.5c0-0.4-0.1-0.7-0.3-1c-0.2-0.2-0.4-0.3-0.7-0.3c-0.3,0-0.5,0.1-0.6,0.2s-0.2,0.4-0.3,0.7H655c0-0.5,0.2-0.8,0.5-1.1
		s0.7-0.4,1.1-0.4c0.3,0,0.7,0.1,0.9,0.2s0.5,0.4,0.6,0.7c0.1,0.3,0.2,0.7,0.2,1.1v0.4c0,0.4-0.1,0.8-0.2,1.1
		c-0.1,0.3-0.3,0.5-0.6,0.7s-0.6,0.2-0.9,0.2c-0.5,0-0.9-0.1-1.2-0.4c-0.3-0.3-0.5-0.6-0.5-1.1H655.7z"/>
	<path class="st1" d="M659.8,347.7v1.6h-0.7V345h1.6c0.5,0,0.9,0.1,1.1,0.4c0.3,0.2,0.4,0.6,0.4,1c0,0.4-0.1,0.7-0.4,1
		c-0.3,0.2-0.7,0.3-1.2,0.3H659.8z M659.8,347.1h0.9c0.3,0,0.5-0.1,0.6-0.2s0.2-0.3,0.2-0.5c0-0.2-0.1-0.4-0.2-0.6
		c-0.1-0.1-0.3-0.2-0.6-0.2h-0.9V347.1z"/>
	<path class="st1" d="M665.9,345v4.3h-0.7v-3.7h-1.3l-0.1,1.6c0,0.5-0.1,0.9-0.2,1.2c-0.1,0.3-0.2,0.5-0.4,0.6s-0.4,0.2-0.7,0.2
		h-0.2v-0.6l0.1,0c0.2,0,0.3-0.1,0.4-0.2s0.2-0.3,0.2-0.5c0-0.2,0.1-0.5,0.1-0.9l0.1-2.1H665.9z"/>
	<path class="st1" d="M667.4,347.9c0,0.3,0.1,0.5,0.3,0.7s0.4,0.2,0.7,0.2c0.3,0,0.5-0.1,0.7-0.3c0.2-0.2,0.3-0.5,0.3-1h-1.5v-0.6
		h1.5c0-0.4-0.1-0.7-0.3-1c-0.2-0.2-0.4-0.3-0.7-0.3c-0.3,0-0.5,0.1-0.6,0.2s-0.2,0.4-0.3,0.7h-0.7c0-0.5,0.2-0.8,0.5-1.1
		s0.7-0.4,1.1-0.4c0.3,0,0.7,0.1,0.9,0.2s0.5,0.4,0.6,0.7c0.1,0.3,0.2,0.7,0.2,1.1v0.4c0,0.4-0.1,0.8-0.2,1.1
		c-0.1,0.3-0.3,0.5-0.6,0.7s-0.6,0.2-0.9,0.2c-0.5,0-0.9-0.1-1.2-0.4c-0.3-0.3-0.5-0.6-0.5-1.1H667.4z"/>
	<path class="st1" d="M673.5,345.6h-2v3.7h-0.7V345h2.7V345.6z"/>
	<path class="st1" d="M677.2,345.6h-1.3v3.7h-0.7v-3.7h-1.3V345h3.4V345.6z"/>
</g>
<g>
	<path class="st1" d="M628.2,353.7l0.9-1.5h0.9l-1.3,2.1l1.3,2.2h-0.9l-0.9-1.6l-0.9,1.6h-0.9l1.3-2.2l-1.3-2.1h0.9L628.2,353.7z"/>
	<path class="st1" d="M631.9,354.2l1-2h0.8l-1.4,2.7v1.6h-0.7v-1.6l-1.4-2.7h0.8L631.9,354.2z"/>
	<path class="st1" d="M634.9,354.9v1.6h-0.7v-4.3h1.6c0.5,0,0.9,0.1,1.1,0.4c0.3,0.2,0.4,0.6,0.4,1c0,0.4-0.1,0.7-0.4,1
		c-0.3,0.2-0.7,0.3-1.2,0.3H634.9z M634.9,354.3h0.9c0.3,0,0.5-0.1,0.6-0.2s0.2-0.3,0.2-0.5c0-0.2-0.1-0.4-0.2-0.6
		c-0.1-0.1-0.3-0.2-0.6-0.2h-0.9V354.3z"/>
	<path class="st1" d="M638.6,355.1c0,0.3,0.1,0.5,0.3,0.7s0.4,0.2,0.7,0.2c0.3,0,0.5-0.1,0.7-0.3c0.2-0.2,0.3-0.5,0.3-1H639V354h1.5
		c0-0.4-0.1-0.7-0.3-1c-0.2-0.2-0.4-0.3-0.7-0.3c-0.3,0-0.5,0.1-0.6,0.2s-0.2,0.4-0.3,0.7h-0.7c0-0.5,0.2-0.8,0.5-1.1
		s0.7-0.4,1.1-0.4c0.3,0,0.7,0.1,0.9,0.2s0.5,0.4,0.6,0.7c0.1,0.3,0.2,0.7,0.2,1.1v0.4c0,0.4-0.1,0.8-0.2,1.1
		c-0.1,0.3-0.3,0.5-0.6,0.7s-0.6,0.2-0.9,0.2c-0.5,0-0.9-0.1-1.2-0.4c-0.3-0.3-0.5-0.6-0.5-1.1H638.6z"/>
	<path class="st1" d="M642.6,355.1c0,0.3,0.1,0.5,0.3,0.7s0.4,0.2,0.7,0.2c0.3,0,0.5-0.1,0.7-0.3c0.2-0.2,0.3-0.5,0.3-1H643V354h1.5
		c0-0.4-0.1-0.7-0.3-1c-0.2-0.2-0.4-0.3-0.7-0.3c-0.3,0-0.5,0.1-0.6,0.2s-0.2,0.4-0.3,0.7h-0.7c0-0.5,0.2-0.8,0.5-1.1
		s0.7-0.4,1.1-0.4c0.3,0,0.7,0.1,0.9,0.2s0.5,0.4,0.6,0.7c0.1,0.3,0.2,0.7,0.2,1.1v0.4c0,0.4-0.1,0.8-0.2,1.1
		c-0.1,0.3-0.3,0.5-0.6,0.7s-0.6,0.2-0.9,0.2c-0.5,0-0.9-0.1-1.2-0.4c-0.3-0.3-0.5-0.6-0.5-1.1H642.6z"/>
	<path class="st1" d="M649.3,352.2v4.3h-0.7v-3.7h-1.3l-0.1,1.6c0,0.5-0.1,0.9-0.2,1.2c-0.1,0.3-0.2,0.5-0.4,0.6s-0.4,0.2-0.7,0.2
		h-0.2v-0.6l0.1,0c0.2,0,0.3-0.1,0.4-0.2s0.2-0.3,0.2-0.5c0-0.2,0.1-0.5,0.1-0.9l0.1-2.1H649.3z"/>
	<path class="st1" d="M650.8,355.1c0,0.3,0.1,0.5,0.3,0.7s0.4,0.2,0.7,0.2c0.3,0,0.5-0.1,0.7-0.3c0.2-0.2,0.3-0.5,0.3-1h-1.5V354
		h1.5c0-0.4-0.1-0.7-0.3-1c-0.2-0.2-0.4-0.3-0.7-0.3c-0.3,0-0.5,0.1-0.6,0.2s-0.2,0.4-0.3,0.7H650c0-0.5,0.2-0.8,0.5-1.1
		s0.7-0.4,1.1-0.4c0.3,0,0.7,0.1,0.9,0.2s0.5,0.4,0.6,0.7c0.1,0.3,0.2,0.7,0.2,1.1v0.4c0,0.4-0.1,0.8-0.2,1.1
		c-0.1,0.3-0.3,0.5-0.6,0.7s-0.6,0.2-0.9,0.2c-0.5,0-0.9-0.1-1.2-0.4c-0.3-0.3-0.5-0.6-0.5-1.1H650.8z"/>
	<path class="st1" d="M657.5,356.4h-0.7v-1.9h-1.9v1.9h-0.7v-4.3h0.7v1.8h1.9v-1.8h0.7V356.4z"/>
</g>
<g>
	<path class="st1" d="M605.4,553.7h0.7v4.3h-0.7v-3l-1.9,3h-0.7v-4.3h0.7v3L605.4,553.7z"/>
	<path class="st1" d="M608.6,555.3l0.9-1.5h0.9l-1.3,2.1l1.3,2.2h-0.9l-0.9-1.6l-0.9,1.6h-0.9l1.3-2.2l-1.3-2.1h0.9L608.6,555.3z"/>
	<path class="st1" d="M615.3,554.3H614v3.7h-0.7v-3.7h-1.3v-0.6h3.4V554.3z"/>
	<path class="st1" d="M616.5,556.6c0,0.3,0.1,0.5,0.3,0.7s0.4,0.2,0.7,0.2c0.3,0,0.5-0.1,0.7-0.3c0.2-0.2,0.3-0.5,0.3-1h-1.5v-0.6
		h1.5c0-0.4-0.1-0.7-0.3-1c-0.2-0.2-0.4-0.3-0.7-0.3c-0.3,0-0.5,0.1-0.6,0.2s-0.2,0.4-0.3,0.7h-0.7c0-0.5,0.2-0.8,0.5-1.1
		s0.7-0.4,1.1-0.4c0.3,0,0.7,0.1,0.9,0.2s0.5,0.4,0.6,0.7c0.1,0.3,0.2,0.7,0.2,1.1v0.4c0,0.4-0.1,0.8-0.2,1.1
		c-0.1,0.3-0.3,0.5-0.6,0.7s-0.6,0.2-0.9,0.2c-0.5,0-0.9-0.1-1.2-0.4c-0.3-0.3-0.5-0.6-0.5-1.1H616.5z"/>
	<path class="st1" d="M623.3,558h-0.7v-1.9h-1.9v1.9h-0.7v-4.3h0.7v1.8h1.9v-1.8h0.7V558z"/>
	<path class="st1" d="M626.9,554.3h-2v3.7h-0.7v-4.3h2.7V554.3z"/>
	<path class="st1" d="M628.1,556.6c0,0.3,0.1,0.5,0.3,0.7s0.4,0.2,0.7,0.2c0.3,0,0.5-0.1,0.7-0.3c0.2-0.2,0.3-0.5,0.3-1h-1.5v-0.6
		h1.5c0-0.4-0.1-0.7-0.3-1c-0.2-0.2-0.4-0.3-0.7-0.3c-0.3,0-0.5,0.1-0.6,0.2s-0.2,0.4-0.3,0.7h-0.7c0-0.5,0.2-0.8,0.5-1.1
		s0.7-0.4,1.1-0.4c0.3,0,0.7,0.1,0.9,0.2s0.5,0.4,0.6,0.7c0.1,0.3,0.2,0.7,0.2,1.1v0.4c0,0.4-0.1,0.8-0.2,1.1
		c-0.1,0.3-0.3,0.5-0.6,0.7s-0.6,0.2-0.9,0.2c-0.5,0-0.9-0.1-1.2-0.4c-0.3-0.3-0.5-0.6-0.5-1.1H628.1z"/>
	<path class="st1" d="M632.2,556.4v1.6h-0.7v-4.3h1.6c0.5,0,0.9,0.1,1.1,0.4c0.3,0.2,0.4,0.6,0.4,1c0,0.4-0.1,0.7-0.4,1
		c-0.3,0.2-0.7,0.3-1.2,0.3H632.2z M632.2,555.8h0.9c0.3,0,0.5-0.1,0.6-0.2s0.2-0.3,0.2-0.5c0-0.2-0.1-0.4-0.2-0.6
		c-0.1-0.1-0.3-0.2-0.6-0.2h-0.9V555.8z"/>
	<path class="st1" d="M637.9,553.7h0.7v4.3h-0.7v-3l-1.9,3h-0.7v-4.3h0.7v3L637.9,553.7z"/>
	<path class="st1" d="M642.1,553.7h0.7v4.3h-0.7v-3l-1.9,3h-0.7v-4.3h0.7v3L642.1,553.7z M642.2,552.7c0,0.2-0.1,0.4-0.3,0.6
		s-0.4,0.2-0.7,0.2s-0.5-0.1-0.7-0.2s-0.3-0.4-0.3-0.6h0.5c0,0.1,0,0.2,0.1,0.3c0.1,0.1,0.2,0.1,0.3,0.1s0.2,0,0.3-0.1
		c0.1-0.1,0.1-0.2,0.1-0.3H642.2z"/>
	<path class="st1" d="M647.2,558h-0.7v-1.9h-1.9v1.9h-0.7v-4.3h0.7v1.8h1.9v-1.8h0.7V558z"/>
	<path class="st1" d="M651.9,557h-1.7l-0.3,1h-0.8l1.6-4.3h0.7l1.6,4.3h-0.8L651.9,557z M650.5,556.4h1.2l-0.6-1.8L650.5,556.4z"/>
	<path class="st1" d="M654.5,553.7l1.2,3.3l1.2-3.3h1v4.3h-0.7v-1.4l0.1-1.9L656,558h-0.5l-1.3-3.3l0.1,1.9v1.4h-0.7v-4.3H654.5z"/>
</g>
<g>
	<path class="st1" d="M419.4,350.9h-0.7v-4.3h0.7V350.9z"/>
	<path class="st1" d="M423.7,350.9H423l-1.9-3v3h-0.7v-4.3h0.7l1.9,3v-3h0.7V350.9z"/>
	<path class="st1" d="M427.6,347.2h-1.3v3.7h-0.7v-3.7h-1.3v-0.6h3.4V347.2z"/>
	<path class="st1" d="M430.7,349h-1.8v1.3h2v0.6h-2.8v-4.3h2.8v0.6h-2v1.2h1.8V349z"/>
	<path class="st1" d="M433.1,349.2h-0.8v1.6h-0.7v-4.3h1.5c0.5,0,0.9,0.1,1.1,0.3c0.3,0.2,0.4,0.5,0.4,1c0,0.3-0.1,0.5-0.2,0.7
		s-0.3,0.3-0.6,0.4l1,1.8v0H434L433.1,349.2z M432.3,348.6h0.8c0.2,0,0.4-0.1,0.6-0.2c0.1-0.1,0.2-0.3,0.2-0.5
		c0-0.2-0.1-0.4-0.2-0.5s-0.3-0.2-0.6-0.2h-0.8V348.6z"/>
	<path class="st1" d="M438.7,350.9H438l-1.9-3v3h-0.7v-4.3h0.7l1.9,3v-3h0.7V350.9z"/>
	<path class="st1" d="M442,349.9h-1.7l-0.3,1h-0.8l1.6-4.3h0.7l1.6,4.3h-0.8L442,349.9z M440.6,349.3h1.2l-0.6-1.8L440.6,349.3z"/>
	<path class="st1" d="M446.4,347.2H445v3.7h-0.7v-3.7H443v-0.6h3.4V347.2z"/>
	<path class="st1" d="M447.7,350.9H447v-4.3h0.7V350.9z"/>
	<path class="st1" d="M452,348.8c0,0.4-0.1,0.8-0.2,1.1c-0.1,0.3-0.4,0.6-0.6,0.7c-0.3,0.2-0.6,0.3-0.9,0.3c-0.3,0-0.7-0.1-0.9-0.3
		c-0.3-0.2-0.5-0.4-0.6-0.7s-0.2-0.7-0.2-1.1v-0.2c0-0.4,0.1-0.8,0.2-1.1s0.4-0.6,0.6-0.7s0.6-0.3,0.9-0.3s0.7,0.1,0.9,0.2
		c0.3,0.2,0.5,0.4,0.6,0.7c0.1,0.3,0.2,0.7,0.2,1.1V348.8z M451.3,348.6c0-0.5-0.1-0.8-0.3-1.1s-0.4-0.4-0.8-0.4
		c-0.3,0-0.6,0.1-0.8,0.4s-0.3,0.6-0.3,1.1v0.2c0,0.5,0.1,0.8,0.3,1.1s0.4,0.4,0.8,0.4c0.3,0,0.6-0.1,0.8-0.4s0.3-0.6,0.3-1.1V348.6
		z"/>
	<path class="st1" d="M456.1,350.9h-0.7l-1.9-3v3h-0.7v-4.3h0.7l1.9,3v-3h0.7V350.9z"/>
	<path class="st1" d="M459.5,349.9h-1.7l-0.3,1h-0.8l1.6-4.3h0.7l1.6,4.3h-0.8L459.5,349.9z M458,349.3h1.2l-0.6-1.8L458,349.3z"/>
	<path class="st1" d="M461.8,350.3h1.9v0.6h-2.7v-4.3h0.7V350.3z"/>
	<path class="st1" d="M468,349.8c0-0.2-0.1-0.3-0.2-0.4s-0.4-0.2-0.7-0.3s-0.6-0.2-0.8-0.3c-0.4-0.2-0.6-0.6-0.6-1
		c0-0.3,0.1-0.6,0.4-0.8s0.6-0.3,1.1-0.3c0.3,0,0.6,0.1,0.8,0.2s0.4,0.3,0.5,0.5c0.1,0.2,0.2,0.4,0.2,0.7H468c0-0.2-0.1-0.4-0.2-0.5
		c-0.1-0.1-0.3-0.2-0.6-0.2c-0.2,0-0.4,0.1-0.6,0.2s-0.2,0.2-0.2,0.4c0,0.2,0.1,0.3,0.2,0.4s0.4,0.2,0.7,0.3s0.6,0.2,0.8,0.3
		c0.2,0.1,0.3,0.3,0.4,0.4c0.1,0.2,0.1,0.4,0.1,0.6c0,0.4-0.1,0.6-0.4,0.8s-0.6,0.3-1.1,0.3c-0.3,0-0.6-0.1-0.9-0.2
		c-0.3-0.1-0.5-0.3-0.6-0.5s-0.2-0.4-0.2-0.7h0.7c0,0.2,0.1,0.4,0.2,0.6s0.4,0.2,0.7,0.2c0.3,0,0.5-0.1,0.6-0.2S468,349.9,468,349.8
		z"/>
	<path class="st1" d="M472.7,349.5c0,0.5-0.2,0.8-0.5,1.1c-0.3,0.3-0.7,0.4-1.2,0.4c-0.3,0-0.6-0.1-0.9-0.2
		c-0.3-0.2-0.5-0.4-0.6-0.7s-0.2-0.6-0.2-1v-0.4c0-0.4,0.1-0.8,0.2-1.1s0.3-0.5,0.6-0.7s0.6-0.2,0.9-0.2c0.5,0,0.8,0.1,1.1,0.4
		c0.3,0.3,0.5,0.6,0.5,1.1h-0.7c0-0.3-0.1-0.5-0.3-0.7c-0.1-0.1-0.4-0.2-0.6-0.2c-0.3,0-0.6,0.1-0.7,0.4s-0.3,0.6-0.3,1v0.4
		c0,0.5,0.1,0.8,0.2,1.1c0.2,0.2,0.4,0.4,0.7,0.4c0.3,0,0.5-0.1,0.7-0.2s0.2-0.3,0.3-0.7H472.7z"/>
	<path class="st1" d="M476.7,350.9H476V349h-1.9v1.9h-0.7v-4.3h0.7v1.8h1.9v-1.8h0.7V350.9z"/>
	<path class="st1" d="M481,348.8c0,0.4-0.1,0.8-0.2,1.1c-0.1,0.3-0.4,0.6-0.6,0.7c-0.3,0.2-0.6,0.3-0.9,0.3c-0.3,0-0.7-0.1-0.9-0.3
		c-0.3-0.2-0.5-0.4-0.6-0.7s-0.2-0.7-0.2-1.1v-0.2c0-0.4,0.1-0.8,0.2-1.1s0.4-0.6,0.6-0.7s0.6-0.3,0.9-0.3s0.7,0.1,0.9,0.2
		c0.3,0.2,0.5,0.4,0.6,0.7c0.1,0.3,0.2,0.7,0.2,1.1V348.8z M480.3,348.6c0-0.5-0.1-0.8-0.3-1.1s-0.4-0.4-0.8-0.4
		c-0.3,0-0.6,0.1-0.8,0.4s-0.3,0.6-0.3,1.1v0.2c0,0.5,0.1,0.8,0.3,1.1s0.4,0.4,0.8,0.4c0.3,0,0.6-0.1,0.8-0.4s0.3-0.6,0.3-1.1V348.6
		z"/>
	<path class="st1" d="M485.1,348.8c0,0.4-0.1,0.8-0.2,1.1c-0.1,0.3-0.4,0.6-0.6,0.7c-0.3,0.2-0.6,0.3-0.9,0.3
		c-0.3,0-0.7-0.1-0.9-0.3c-0.3-0.2-0.5-0.4-0.6-0.7c-0.1-0.3-0.2-0.7-0.2-1.1v-0.2c0-0.4,0.1-0.8,0.2-1.1s0.4-0.6,0.6-0.7
		c0.3-0.2,0.6-0.3,0.9-0.3s0.7,0.1,0.9,0.2c0.3,0.2,0.5,0.4,0.6,0.7c0.1,0.3,0.2,0.7,0.2,1.1V348.8z M484.4,348.6
		c0-0.5-0.1-0.8-0.3-1.1c-0.2-0.3-0.4-0.4-0.8-0.4c-0.3,0-0.6,0.1-0.8,0.4s-0.3,0.6-0.3,1.1v0.2c0,0.5,0.1,0.8,0.3,1.1
		c0.2,0.3,0.4,0.4,0.8,0.4c0.3,0,0.6-0.1,0.8-0.4c0.2-0.2,0.3-0.6,0.3-1.1V348.6z"/>
	<path class="st1" d="M486.6,350.3h1.9v0.6h-2.7v-4.3h0.7V350.3z"/>
	<path class="st1" d="M494,348.8c0,0.4-0.1,0.8-0.2,1.1c-0.1,0.3-0.4,0.6-0.6,0.7c-0.3,0.2-0.6,0.3-0.9,0.3c-0.3,0-0.7-0.1-0.9-0.3
		c-0.3-0.2-0.5-0.4-0.6-0.7c-0.1-0.3-0.2-0.7-0.2-1.1v-0.2c0-0.4,0.1-0.8,0.2-1.1s0.4-0.6,0.6-0.7c0.3-0.2,0.6-0.3,0.9-0.3
		s0.7,0.1,0.9,0.2c0.3,0.2,0.5,0.4,0.6,0.7c0.1,0.3,0.2,0.7,0.2,1.1V348.8z M493.3,348.6c0-0.5-0.1-0.8-0.3-1.1
		c-0.2-0.3-0.4-0.4-0.8-0.4c-0.3,0-0.6,0.1-0.8,0.4s-0.3,0.6-0.3,1.1v0.2c0,0.5,0.1,0.8,0.3,1.1c0.2,0.3,0.4,0.4,0.8,0.4
		c0.3,0,0.6-0.1,0.8-0.4c0.2-0.2,0.3-0.6,0.3-1.1V348.6z"/>
	<path class="st1" d="M497.2,349.1h-1.7v1.8h-0.7v-4.3h2.7v0.6h-2v1.3h1.7V349.1z"/>
</g>
<g>
	<path class="st1" d="M440.5,353.8v2.9c0,0.5-0.1,0.8-0.4,1.1s-0.7,0.4-1.2,0.4c-0.5,0-0.9-0.1-1.2-0.4c-0.3-0.3-0.4-0.6-0.4-1.1
		v-2.8h0.7v2.9c0,0.3,0.1,0.5,0.2,0.7s0.4,0.2,0.6,0.2c0.6,0,0.9-0.3,0.9-0.9v-2.8H440.5z"/>
	<path class="st1" d="M442.1,357.5h1.9v0.6h-2.7v-4.3h0.7V357.5z"/>
	<path class="st1" d="M447,357.1h-1.7l-0.3,1h-0.8l1.6-4.3h0.7l1.6,4.3h-0.8L447,357.1z M445.6,356.5h1.2l-0.6-1.8L445.6,356.5z"/>
	<path class="st1" d="M451,357.1h-1.7l-0.3,1h-0.8l1.6-4.3h0.7l1.6,4.3h-0.8L451,357.1z M449.6,356.5h1.2l-0.6-1.8L449.6,356.5z"/>
	<path class="st1" d="M456,358.1h-0.7l-1.9-3v3h-0.7v-4.3h0.7l1.9,3v-3h0.7V358.1z"/>
	<path class="st1" d="M456.9,358.1v-4.3h1.5c0.5,0,0.8,0.1,1.1,0.3s0.4,0.5,0.4,0.9c0,0.2-0.1,0.4-0.2,0.5s-0.3,0.3-0.5,0.4
		c0.2,0.1,0.4,0.2,0.5,0.4c0.1,0.2,0.2,0.4,0.2,0.6c0,0.4-0.1,0.7-0.4,0.9s-0.6,0.3-1.1,0.3H456.9z M457.6,355.6h0.7
		c0.2,0,0.4-0.1,0.5-0.2c0.1-0.1,0.2-0.3,0.2-0.4c0-0.2-0.1-0.4-0.2-0.5s-0.3-0.1-0.6-0.1h-0.7V355.6z M457.6,356.1v1.3h0.8
		c0.2,0,0.4-0.1,0.5-0.2s0.2-0.3,0.2-0.5c0-0.4-0.2-0.7-0.7-0.7H457.6z"/>
	<path class="st1" d="M463,357.1h-1.7l-0.3,1h-0.8l1.6-4.3h0.7l1.6,4.3h-0.8L463,357.1z M461.6,356.5h1.2l-0.6-1.8L461.6,356.5z"/>
	<path class="st1" d="M467,357.1h-1.7l-0.3,1h-0.8l1.6-4.3h0.7l1.6,4.3h-0.8L467,357.1z M465.6,356.5h1.2l-0.6-1.8L465.6,356.5z"/>
	<path class="st1" d="M471.4,354.4H470v3.7h-0.7v-3.7H468v-0.6h3.4V354.4z"/>
	<path class="st1" d="M474,357.1h-1.7l-0.3,1h-0.8l1.6-4.3h0.7l1.6,4.3h-0.8L474,357.1z M472.5,356.5h1.2l-0.6-1.8L472.5,356.5z"/>
	<path class="st1" d="M477.1,356.4h-0.8v1.6h-0.7v-4.3h1.5c0.5,0,0.9,0.1,1.1,0.3c0.3,0.2,0.4,0.5,0.4,1c0,0.3-0.1,0.5-0.2,0.7
		s-0.3,0.3-0.6,0.4l1,1.8v0H478L477.1,356.4z M476.3,355.8h0.8c0.2,0,0.4-0.1,0.6-0.2c0.1-0.1,0.2-0.3,0.2-0.5
		c0-0.2-0.1-0.4-0.2-0.5s-0.3-0.2-0.6-0.2h-0.8V355.8z"/>
</g>
<g>
	<path class="st1" d="M306.4,533.2c0-0.2-0.1-0.3-0.2-0.5s-0.3-0.2-0.6-0.2c-0.2,0-0.4,0.1-0.5,0.2s-0.2,0.3-0.2,0.4h-0.7
		c0-0.2,0.1-0.4,0.2-0.6s0.3-0.3,0.5-0.4s0.5-0.2,0.8-0.2c0.5,0,0.9,0.1,1.1,0.3s0.4,0.5,0.4,0.9c0,0.2-0.1,0.4-0.2,0.5
		s-0.3,0.3-0.5,0.4c0.2,0.1,0.4,0.2,0.5,0.4c0.1,0.2,0.2,0.4,0.2,0.6c0,0.4-0.1,0.7-0.4,0.9c-0.3,0.2-0.7,0.3-1.2,0.3
		c-0.3,0-0.6-0.1-0.8-0.2s-0.4-0.3-0.5-0.4s-0.2-0.4-0.2-0.6h0.7c0,0.2,0.1,0.3,0.2,0.5c0.2,0.1,0.3,0.2,0.6,0.2
		c0.3,0,0.5-0.1,0.6-0.2s0.2-0.3,0.2-0.5c0-0.2-0.1-0.4-0.2-0.5c-0.1-0.1-0.3-0.2-0.6-0.2h-0.5v-0.6h0.5
		C306.1,533.9,306.4,533.7,306.4,533.2z"/>
	<path class="st1" d="M310.3,535.3h-1.7l-0.3,1h-0.8l1.6-4.3h0.7l1.6,4.3h-0.8L310.3,535.3z M308.8,534.8h1.2l-0.6-1.8L308.8,534.8z
		"/>
	<path class="st1" d="M314.5,532.1h0.7v4.3h-0.7v-3l-1.9,3h-0.7v-4.3h0.7v3L314.5,532.1z M314.5,531c0,0.2-0.1,0.4-0.3,0.6
		s-0.4,0.2-0.7,0.2s-0.5-0.1-0.7-0.2s-0.3-0.4-0.3-0.6h0.5c0,0.1,0,0.2,0.1,0.3c0.1,0.1,0.2,0.1,0.3,0.1s0.2,0,0.3-0.1
		c0.1-0.1,0.1-0.2,0.1-0.3H314.5z"/>
	<path class="st1" d="M319.4,535c0,0.5-0.2,0.8-0.5,1.1c-0.3,0.3-0.7,0.4-1.2,0.4c-0.3,0-0.6-0.1-0.9-0.2c-0.3-0.2-0.5-0.4-0.6-0.7
		s-0.2-0.6-0.2-1V534c0-0.4,0.1-0.8,0.2-1.1s0.3-0.5,0.6-0.7s0.6-0.2,0.9-0.2c0.5,0,0.8,0.1,1.1,0.4c0.3,0.3,0.5,0.6,0.5,1.1h-0.7
		c0-0.3-0.1-0.5-0.3-0.7c-0.1-0.1-0.4-0.2-0.6-0.2c-0.3,0-0.6,0.1-0.7,0.4s-0.3,0.6-0.3,1v0.4c0,0.5,0.1,0.8,0.2,1.1
		c0.2,0.2,0.4,0.4,0.7,0.4c0.3,0,0.5-0.1,0.7-0.2s0.2-0.3,0.3-0.7H319.4z"/>
	<path class="st1" d="M322.4,535.3h-1.7l-0.3,1h-0.8l1.6-4.3h0.7l1.6,4.3h-0.8L322.4,535.3z M321,534.8h1.2l-0.6-1.8L321,534.8z"/>
	<path class="st1" d="M327.4,536.3h-0.7v-1.9h-1.9v1.9H324v-4.3h0.7v1.8h1.9v-1.8h0.7V536.3z"/>
	<path class="st1" d="M331,532.7h-2v3.7h-0.7v-4.3h2.7V532.7z"/>
	<path class="st1" d="M334.3,532.1h0.7v4.3h-0.7v-3l-1.9,3h-0.7v-4.3h0.7v3L334.3,532.1z"/>
	<path class="st1" d="M338.5,532.1h0.7v4.3h-0.7v-3l-1.9,3h-0.7v-4.3h0.7v3L338.5,532.1z M338.5,531c0,0.2-0.1,0.4-0.3,0.6
		s-0.4,0.2-0.7,0.2s-0.5-0.1-0.7-0.2s-0.3-0.4-0.3-0.6h0.5c0,0.1,0,0.2,0.1,0.3c0.1,0.1,0.2,0.1,0.3,0.1s0.2,0,0.3-0.1
		c0.1-0.1,0.1-0.2,0.1-0.3H338.5z"/>
	<path class="st1" d="M343.5,536.3h-0.7v-1.9h-1.9v1.9h-0.7v-4.3h0.7v1.8h1.9v-1.8h0.7V536.3z"/>
	<path class="st1" d="M347.4,533.6l0.9-1.5h0.9l-1.3,2.1l1.3,2.2h-0.9l-0.9-1.6l-0.9,1.6h-0.9l1.3-2.2l-1.3-2.1h0.9L347.4,533.6z"/>
	<path class="st1" d="M353,534.3c0,0.4-0.1,0.8-0.2,1.1c-0.1,0.3-0.4,0.6-0.6,0.7c-0.3,0.2-0.6,0.3-0.9,0.3c-0.3,0-0.6-0.1-0.9-0.2
		s-0.5-0.4-0.6-0.7s-0.2-0.7-0.2-1.1v-0.3c0-0.4,0.1-0.8,0.2-1.1s0.4-0.6,0.6-0.7c0.3-0.2,0.6-0.3,0.9-0.3s0.7,0.1,0.9,0.2
		c0.3,0.2,0.5,0.4,0.6,0.7c0.1,0.3,0.2,0.7,0.2,1.1V534.3z M351.2,532.6c-0.3,0-0.6,0.1-0.7,0.4s-0.3,0.6-0.3,1h2.1
		c0-0.4-0.1-0.8-0.3-1S351.5,532.6,351.2,532.6z M351.2,535.8c0.3,0,0.6-0.1,0.7-0.3c0.2-0.2,0.3-0.6,0.3-1h-2.1
		c0,0.4,0.1,0.8,0.3,1S350.9,535.8,351.2,535.8z"/>
	<path class="st1" d="M354.5,532.1v3.7h1.3v-3.7h0.7v3.7h1.3v-3.7h0.7v4.3h-4.8v-4.3H354.5z"/>
	<path class="st1" d="M362.8,534.3c0,0.4-0.1,0.8-0.2,1.1c-0.1,0.3-0.4,0.6-0.6,0.7c-0.3,0.2-0.6,0.3-0.9,0.3
		c-0.3,0-0.6-0.1-0.9-0.2s-0.5-0.4-0.6-0.7s-0.2-0.7-0.2-1.1v-0.3c0-0.4,0.1-0.8,0.2-1.1s0.4-0.6,0.6-0.7c0.3-0.2,0.6-0.3,0.9-0.3
		s0.7,0.1,0.9,0.2c0.3,0.2,0.5,0.4,0.6,0.7c0.1,0.3,0.2,0.7,0.2,1.1V534.3z M361,532.6c-0.3,0-0.6,0.1-0.7,0.4s-0.3,0.6-0.3,1h2.1
		c0-0.4-0.1-0.8-0.3-1S361.4,532.6,361,532.6z M361,535.8c0.3,0,0.6-0.1,0.7-0.3c0.2-0.2,0.3-0.6,0.3-1H360c0,0.4,0.1,0.8,0.3,1
		S360.7,535.8,361,535.8z"/>
	<path class="st1" d="M366.9,534.3c0,0.4-0.1,0.8-0.2,1.1c-0.1,0.3-0.4,0.6-0.6,0.7c-0.3,0.2-0.6,0.3-0.9,0.3
		c-0.3,0-0.6-0.1-0.9-0.2s-0.5-0.4-0.6-0.7s-0.2-0.7-0.2-1.1v-0.3c0-0.4,0.1-0.8,0.2-1.1s0.4-0.6,0.6-0.7c0.3-0.2,0.6-0.3,0.9-0.3
		s0.7,0.1,0.9,0.2c0.3,0.2,0.5,0.4,0.6,0.7c0.1,0.3,0.2,0.7,0.2,1.1V534.3z M365.1,532.6c-0.3,0-0.6,0.1-0.7,0.4s-0.3,0.6-0.3,1h2.1
		c0-0.4-0.1-0.8-0.3-1S365.5,532.6,365.1,532.6z M365.2,535.8c0.3,0,0.6-0.1,0.7-0.3c0.2-0.2,0.3-0.6,0.3-1h-2.1
		c0,0.4,0.1,0.8,0.3,1S364.8,535.8,365.2,535.8z"/>
</g>
<g>
	<path class="st1" d="M294.9,352l1-2h0.8l-1.4,2.7v1.6h-0.7v-1.6l-1.4-2.7h0.8L294.9,352z"/>
	<path class="st1" d="M300.6,354.2h-0.7v-1.9h-1.9v1.9h-0.7V350h0.7v1.8h1.9V350h0.7V354.2z"/>
	<path class="st1" d="M305.4,355.3h-0.7v-1h-2.8v1h-0.7l0-1.6h0.3c0.2-0.2,0.3-0.4,0.4-0.7c0.1-0.3,0.2-0.7,0.2-1.1l0.1-1.9h2.7v3.7
		h0.5L305.4,355.3z M302.3,353.6h1.8v-3.1h-1.2l-0.1,1.2C302.8,352.6,302.6,353.2,302.3,353.6z"/>
	<path class="st1" d="M306.6,352.8c0,0.3,0.1,0.5,0.3,0.7s0.4,0.2,0.7,0.2c0.3,0,0.5-0.1,0.7-0.3s0.3-0.5,0.3-1H307v-0.6h1.5
		c0-0.4-0.1-0.7-0.3-1s-0.4-0.3-0.7-0.3c-0.3,0-0.5,0.1-0.6,0.2s-0.2,0.4-0.3,0.7h-0.7c0-0.5,0.2-0.8,0.5-1.1s0.7-0.4,1.1-0.4
		c0.3,0,0.7,0.1,0.9,0.2s0.5,0.4,0.6,0.7s0.2,0.7,0.2,1.1v0.4c0,0.4-0.1,0.8-0.2,1.1c-0.1,0.3-0.3,0.5-0.6,0.7s-0.6,0.2-0.9,0.2
		c-0.5,0-0.9-0.1-1.2-0.4c-0.3-0.3-0.5-0.6-0.5-1.1H306.6z"/>
	<path class="st1" d="M313.2,352.8c0,0.5-0.2,0.8-0.5,1.1c-0.3,0.3-0.7,0.4-1.2,0.4c-0.3,0-0.6-0.1-0.9-0.2
		c-0.3-0.2-0.5-0.4-0.6-0.7s-0.2-0.6-0.2-1v-0.4c0-0.4,0.1-0.8,0.2-1.1s0.3-0.5,0.6-0.7s0.6-0.2,0.9-0.2c0.5,0,0.8,0.1,1.1,0.4
		c0.3,0.3,0.5,0.6,0.5,1.1h-0.7c0-0.3-0.1-0.5-0.3-0.7c-0.1-0.1-0.4-0.2-0.6-0.2c-0.3,0-0.6,0.1-0.7,0.4s-0.3,0.6-0.3,1v0.4
		c0,0.5,0.1,0.8,0.2,1.1c0.2,0.2,0.4,0.4,0.7,0.4c0.3,0,0.5-0.1,0.7-0.2s0.2-0.3,0.3-0.7H313.2z"/>
	<path class="st1" d="M317.3,354.2h-0.7v-1.9h-1.9v1.9h-0.7V350h0.7v1.8h1.9V350h0.7V354.2z"/>
	<path class="st1" d="M320.8,350h0.7v4.3h-0.7v-3l-1.9,3h-0.7V350h0.7v3L320.8,350z"/>
	<path class="st1" d="M325,350h0.7v4.3H325v-3l-1.9,3h-0.7V350h0.7v3L325,350z M325,348.9c0,0.2-0.1,0.4-0.3,0.6s-0.4,0.2-0.7,0.2
		s-0.5-0.1-0.7-0.2s-0.3-0.4-0.3-0.6h0.5c0,0.1,0,0.2,0.1,0.3c0.1,0.1,0.2,0.1,0.3,0.1s0.2,0,0.3-0.1c0.1-0.1,0.1-0.2,0.1-0.3H325z"
		/>
	<path class="st1" d="M331.1,350.6h-1.3v3.7H329v-3.7h-1.3V350h3.4V350.6z"/>
	<path class="st1" d="M334.9,352.2c0,0.4-0.1,0.8-0.2,1.1c-0.1,0.3-0.4,0.6-0.6,0.7c-0.3,0.2-0.6,0.3-0.9,0.3
		c-0.3,0-0.6-0.1-0.9-0.2s-0.5-0.4-0.6-0.7s-0.2-0.7-0.2-1.1V352c0-0.4,0.1-0.8,0.2-1.1s0.4-0.6,0.6-0.7c0.3-0.2,0.6-0.3,0.9-0.3
		s0.7,0.1,0.9,0.2c0.3,0.2,0.5,0.4,0.6,0.7c0.1,0.3,0.2,0.7,0.2,1.1V352.2z M333.2,350.5c-0.3,0-0.6,0.1-0.7,0.4s-0.3,0.6-0.3,1h2.1
		c0-0.4-0.1-0.8-0.3-1S333.5,350.5,333.2,350.5z M333.2,353.7c0.3,0,0.6-0.1,0.7-0.3c0.2-0.2,0.3-0.6,0.3-1h-2.1
		c0,0.4,0.1,0.8,0.3,1S332.8,353.7,333.2,353.7z"/>
	<path class="st1" d="M335.6,354.2V350h1.5c0.5,0,0.8,0.1,1.1,0.3s0.4,0.5,0.4,0.9c0,0.2-0.1,0.4-0.2,0.5s-0.3,0.3-0.5,0.4
		c0.2,0.1,0.4,0.2,0.5,0.4c0.1,0.2,0.2,0.4,0.2,0.6c0,0.4-0.1,0.7-0.4,0.9s-0.6,0.3-1.1,0.3H335.6z M336.4,351.8h0.7
		c0.2,0,0.4-0.1,0.5-0.2c0.1-0.1,0.2-0.3,0.2-0.4c0-0.2-0.1-0.4-0.2-0.5s-0.3-0.1-0.6-0.1h-0.7V351.8z M336.4,352.3v1.3h0.8
		c0.2,0,0.4-0.1,0.5-0.2s0.2-0.3,0.2-0.5c0-0.4-0.2-0.7-0.7-0.7H336.4z"/>
</g>
<g>
	<path class="st1" d="M281.6,357.2h0.7v3.7h1.9v-3.7h0.7v3.7h0.5l-0.1,1.6h-0.7v-1h-3.1V357.2z"/>
	<path class="st1" d="M286.7,360c0,0.3,0.1,0.5,0.3,0.7s0.4,0.2,0.7,0.2c0.3,0,0.5-0.1,0.7-0.3s0.3-0.5,0.3-1h-1.5V359h1.5
		c0-0.4-0.1-0.7-0.3-1s-0.4-0.3-0.7-0.3c-0.3,0-0.5,0.1-0.6,0.2s-0.2,0.4-0.3,0.7H286c0-0.5,0.2-0.8,0.5-1.1s0.7-0.4,1.1-0.4
		c0.3,0,0.7,0.1,0.9,0.2s0.5,0.4,0.6,0.7s0.2,0.7,0.2,1.1v0.4c0,0.4-0.1,0.8-0.2,1.1c-0.1,0.3-0.3,0.5-0.6,0.7s-0.6,0.2-0.9,0.2
		c-0.5,0-0.9-0.1-1.2-0.4c-0.3-0.3-0.5-0.6-0.5-1.1H286.7z"/>
	<path class="st1" d="M293.5,361.4h-0.7v-1.9h-1.9v1.9h-0.7v-4.3h0.7v1.8h1.9v-1.8h0.7V361.4z"/>
	<path class="st1" d="M297.1,357.8h-2v3.7h-0.7v-4.3h2.7V357.8z"/>
	<path class="st1" d="M298.3,360c0,0.3,0.1,0.5,0.3,0.7s0.4,0.2,0.7,0.2c0.3,0,0.5-0.1,0.7-0.3s0.3-0.5,0.3-1h-1.5V359h1.5
		c0-0.4-0.1-0.7-0.3-1s-0.4-0.3-0.7-0.3c-0.3,0-0.5,0.1-0.6,0.2s-0.2,0.4-0.3,0.7h-0.7c0-0.5,0.2-0.8,0.5-1.1s0.7-0.4,1.1-0.4
		c0.3,0,0.7,0.1,0.9,0.2s0.5,0.4,0.6,0.7s0.2,0.7,0.2,1.1v0.4c0,0.4-0.1,0.8-0.2,1.1c-0.1,0.3-0.3,0.5-0.6,0.7s-0.6,0.2-0.9,0.2
		c-0.5,0-0.9-0.1-1.2-0.4c-0.3-0.3-0.5-0.6-0.5-1.1H298.3z"/>
	<path class="st1" d="M305,357.2v4.3h-0.7v-3.7h-1.3l-0.1,1.6c0,0.5-0.1,0.9-0.2,1.2c-0.1,0.3-0.2,0.5-0.4,0.6s-0.4,0.2-0.7,0.2
		h-0.2v-0.6l0.1,0c0.2,0,0.3-0.1,0.4-0.2s0.2-0.3,0.2-0.5c0-0.2,0.1-0.5,0.1-0.9l0.1-2.1H305z"/>
	<path class="st1" d="M309.8,362.5h-0.7v-1h-2.8v1h-0.7l0-1.6h0.3c0.2-0.2,0.3-0.4,0.4-0.7c0.1-0.3,0.2-0.7,0.2-1.1l0.1-1.9h2.7v3.7
		h0.5L309.8,362.5z M306.8,360.8h1.8v-3.1h-1.2l-0.1,1.2C307.2,359.8,307.1,360.4,306.8,360.8z"/>
	<path class="st1" d="M311.1,360c0,0.3,0.1,0.5,0.3,0.7s0.4,0.2,0.7,0.2c0.3,0,0.5-0.1,0.7-0.3s0.3-0.5,0.3-1h-1.5V359h1.5
		c0-0.4-0.1-0.7-0.3-1s-0.4-0.3-0.7-0.3c-0.3,0-0.5,0.1-0.6,0.2s-0.2,0.4-0.3,0.7h-0.7c0-0.5,0.2-0.8,0.5-1.1s0.7-0.4,1.1-0.4
		c0.3,0,0.7,0.1,0.9,0.2s0.5,0.4,0.6,0.7s0.2,0.7,0.2,1.1v0.4c0,0.4-0.1,0.8-0.2,1.1c-0.1,0.3-0.3,0.5-0.6,0.7s-0.6,0.2-0.9,0.2
		c-0.5,0-0.9-0.1-1.2-0.4c-0.3-0.3-0.5-0.6-0.5-1.1H311.1z"/>
	<path class="st1" d="M315.8,358.7l0.9-1.5h0.9l-1.3,2.1l1.3,2.2h-0.9l-0.9-1.6l-0.9,1.6H314l1.3-2.2l-1.3-2.1h0.9L315.8,358.7z"/>
	<path class="st1" d="M321.1,358.7l0.9-1.5h0.9l-1.3,2.1l1.3,2.2H322l-0.9-1.6l-0.9,1.6h-0.9l1.3-2.2l-1.3-2.1h0.9L321.1,358.7z"/>
	<path class="st1" d="M324.8,359.2l1-2h0.8l-1.4,2.7v1.6h-0.7v-1.6l-1.4-2.7h0.8L324.8,359.2z"/>
	<path class="st1" d="M327.8,359.8v1.6h-0.7v-4.3h1.6c0.5,0,0.9,0.1,1.1,0.4c0.3,0.2,0.4,0.6,0.4,1c0,0.4-0.1,0.7-0.4,1
		c-0.3,0.2-0.7,0.3-1.2,0.3H327.8z M327.8,359.2h0.9c0.3,0,0.5-0.1,0.6-0.2s0.2-0.3,0.2-0.5c0-0.2-0.1-0.4-0.2-0.6
		c-0.1-0.1-0.3-0.2-0.6-0.2h-0.9V359.2z"/>
	<path class="st1" d="M331.5,360c0,0.3,0.1,0.5,0.3,0.7s0.4,0.2,0.7,0.2c0.3,0,0.5-0.1,0.7-0.3s0.3-0.5,0.3-1h-1.5V359h1.5
		c0-0.4-0.1-0.7-0.3-1s-0.4-0.3-0.7-0.3c-0.3,0-0.5,0.1-0.6,0.2s-0.2,0.4-0.3,0.7h-0.7c0-0.5,0.2-0.8,0.5-1.1s0.7-0.4,1.1-0.4
		c0.3,0,0.7,0.1,0.9,0.2s0.5,0.4,0.6,0.7s0.2,0.7,0.2,1.1v0.4c0,0.4-0.1,0.8-0.2,1.1c-0.1,0.3-0.3,0.5-0.6,0.7s-0.6,0.2-0.9,0.2
		c-0.5,0-0.9-0.1-1.2-0.4c-0.3-0.3-0.5-0.6-0.5-1.1H331.5z"/>
	<path class="st1" d="M335.5,360c0,0.3,0.1,0.5,0.3,0.7s0.4,0.2,0.7,0.2c0.3,0,0.5-0.1,0.7-0.3s0.3-0.5,0.3-1h-1.5V359h1.5
		c0-0.4-0.1-0.7-0.3-1s-0.4-0.3-0.7-0.3c-0.3,0-0.5,0.1-0.6,0.2s-0.2,0.4-0.3,0.7h-0.7c0-0.5,0.2-0.8,0.5-1.1s0.7-0.4,1.1-0.4
		c0.3,0,0.7,0.1,0.9,0.2s0.5,0.4,0.6,0.7s0.2,0.7,0.2,1.1v0.4c0,0.4-0.1,0.8-0.2,1.1c-0.1,0.3-0.3,0.5-0.6,0.7s-0.6,0.2-0.9,0.2
		c-0.5,0-0.9-0.1-1.2-0.4c-0.3-0.3-0.5-0.6-0.5-1.1H335.5z"/>
	<path class="st1" d="M342.2,357.2v4.3h-0.7v-3.7h-1.3l-0.1,1.6c0,0.5-0.1,0.9-0.2,1.2c-0.1,0.3-0.2,0.5-0.4,0.6s-0.4,0.2-0.7,0.2
		h-0.2v-0.6l0.1,0c0.2,0,0.3-0.1,0.4-0.2s0.2-0.3,0.2-0.5c0-0.2,0.1-0.5,0.1-0.9l0.1-2.1H342.2z"/>
	<path class="st1" d="M343.7,360c0,0.3,0.1,0.5,0.3,0.7s0.4,0.2,0.7,0.2c0.3,0,0.5-0.1,0.7-0.3s0.3-0.5,0.3-1h-1.5V359h1.5
		c0-0.4-0.1-0.7-0.3-1s-0.4-0.3-0.7-0.3c-0.3,0-0.5,0.1-0.6,0.2s-0.2,0.4-0.3,0.7h-0.7c0-0.5,0.2-0.8,0.5-1.1s0.7-0.4,1.1-0.4
		c0.3,0,0.7,0.1,0.9,0.2s0.5,0.4,0.6,0.7s0.2,0.7,0.2,1.1v0.4c0,0.4-0.1,0.8-0.2,1.1c-0.1,0.3-0.3,0.5-0.6,0.7s-0.6,0.2-0.9,0.2
		c-0.5,0-0.9-0.1-1.2-0.4c-0.3-0.3-0.5-0.6-0.5-1.1H343.7z"/>
	<path class="st1" d="M350.4,361.4h-0.7v-1.9h-1.9v1.9H347v-4.3h0.7v1.8h1.9v-1.8h0.7V361.4z"/>
</g>
<g>
	<path class="st1" d="M334.6,190.8l1-2h0.8l-1.4,2.7v1.6h-0.7v-1.6l-1.4-2.7h0.8L334.6,190.8z"/>
	<path class="st1" d="M340.2,193.1h-0.7v-1.9h-1.9v1.9h-0.7v-4.3h0.7v1.8h1.9v-1.8h0.7V193.1z"/>
	<path class="st1" d="M345.1,194.1h-0.7v-1h-2.8v1h-0.7l0-1.6h0.3c0.2-0.2,0.3-0.4,0.4-0.7s0.2-0.7,0.2-1.1l0.1-1.9h2.7v3.7h0.5
		L345.1,194.1z M342,192.5h1.8v-3.1h-1.2l-0.1,1.2C342.5,191.4,342.3,192,342,192.5z"/>
	<path class="st1" d="M346.3,191.7c0,0.3,0.1,0.5,0.3,0.7s0.4,0.2,0.7,0.2c0.3,0,0.5-0.1,0.7-0.3s0.3-0.5,0.3-1h-1.5v-0.6h1.5
		c0-0.4-0.1-0.7-0.3-1s-0.4-0.3-0.7-0.3c-0.3,0-0.5,0.1-0.6,0.2s-0.2,0.4-0.3,0.7h-0.7c0-0.5,0.2-0.8,0.5-1.1s0.7-0.4,1.1-0.4
		c0.3,0,0.7,0.1,0.9,0.2s0.5,0.4,0.6,0.7s0.2,0.7,0.2,1.1v0.4c0,0.4-0.1,0.8-0.2,1.1s-0.3,0.5-0.6,0.7s-0.6,0.2-0.9,0.2
		c-0.5,0-0.9-0.1-1.2-0.4s-0.5-0.6-0.5-1.1H346.3z"/>
	<path class="st1" d="M352.9,191.7c0,0.5-0.2,0.8-0.5,1.1s-0.7,0.4-1.2,0.4c-0.3,0-0.6-0.1-0.9-0.2s-0.5-0.4-0.6-0.7s-0.2-0.6-0.2-1
		v-0.4c0-0.4,0.1-0.8,0.2-1.1s0.3-0.5,0.6-0.7s0.6-0.2,0.9-0.2c0.5,0,0.8,0.1,1.1,0.4s0.5,0.6,0.5,1.1h-0.7c0-0.3-0.1-0.5-0.3-0.7
		s-0.4-0.2-0.6-0.2c-0.3,0-0.6,0.1-0.7,0.4c-0.2,0.2-0.3,0.6-0.3,1v0.4c0,0.5,0.1,0.8,0.2,1.1c0.2,0.2,0.4,0.4,0.7,0.4
		c0.3,0,0.5-0.1,0.7-0.2s0.2-0.3,0.3-0.7H352.9z"/>
	<path class="st1" d="M356.9,193.1h-0.7v-1.9h-1.9v1.9h-0.7v-4.3h0.7v1.8h1.9v-1.8h0.7V193.1z"/>
	<path class="st1" d="M360.4,188.8h0.7v4.3h-0.7v-3l-1.9,3h-0.7v-4.3h0.7v3L360.4,188.8z"/>
	<path class="st1" d="M364.7,188.8h0.7v4.3h-0.7v-3l-1.9,3h-0.7v-4.3h0.7v3L364.7,188.8z M364.7,187.7c0,0.2-0.1,0.4-0.3,0.6
		s-0.4,0.2-0.7,0.2s-0.5-0.1-0.7-0.2s-0.3-0.4-0.3-0.6h0.5c0,0.1,0,0.2,0.1,0.3s0.2,0.1,0.3,0.1s0.2,0,0.3-0.1s0.1-0.2,0.1-0.3
		H364.7z"/>
	<path class="st1" d="M371.1,191.7c0,0.5-0.2,0.8-0.5,1.1s-0.7,0.4-1.2,0.4c-0.3,0-0.6-0.1-0.9-0.2s-0.5-0.4-0.6-0.7s-0.2-0.6-0.2-1
		v-0.4c0-0.4,0.1-0.8,0.2-1.1s0.3-0.5,0.6-0.7s0.6-0.2,0.9-0.2c0.5,0,0.8,0.1,1.1,0.4s0.5,0.6,0.5,1.1h-0.7c0-0.3-0.1-0.5-0.3-0.7
		s-0.4-0.2-0.6-0.2c-0.3,0-0.6,0.1-0.7,0.4c-0.2,0.2-0.3,0.6-0.3,1v0.4c0,0.5,0.1,0.8,0.2,1.1c0.2,0.2,0.4,0.4,0.7,0.4
		c0.3,0,0.5-0.1,0.7-0.2s0.2-0.3,0.3-0.7H371.1z"/>
	<path class="st1" d="M375.1,191c0,0.4-0.1,0.8-0.2,1.1s-0.4,0.6-0.6,0.7s-0.6,0.3-0.9,0.3c-0.3,0-0.7-0.1-0.9-0.3s-0.5-0.4-0.6-0.7
		s-0.2-0.7-0.2-1.1v-0.2c0-0.4,0.1-0.8,0.2-1.1s0.4-0.6,0.6-0.7s0.6-0.3,0.9-0.3s0.7,0.1,0.9,0.3s0.5,0.4,0.6,0.7s0.2,0.7,0.2,1.1
		V191z M374.4,190.8c0-0.5-0.1-0.8-0.3-1.1s-0.4-0.4-0.8-0.4c-0.3,0-0.6,0.1-0.8,0.4s-0.3,0.6-0.3,1.1v0.2c0,0.5,0.1,0.8,0.3,1.1
		s0.4,0.4,0.8,0.4c0.3,0,0.6-0.1,0.8-0.4s0.3-0.6,0.3-1.1V190.8z"/>
	<path class="st1" d="M378.4,191.2h-1.8v1.3h2v0.6h-2.8v-4.3h2.8v0.6h-2v1.2h1.8V191.2z M376.2,188.1c0-0.1,0-0.2,0.1-0.2
		s0.2-0.1,0.3-0.1s0.2,0,0.3,0.1s0.1,0.1,0.1,0.2s0,0.2-0.1,0.2s-0.2,0.1-0.3,0.1s-0.2,0-0.3-0.1S376.2,188.2,376.2,188.1z
		 M377.6,188.1c0-0.1,0-0.2,0.1-0.2s0.2-0.1,0.3-0.1s0.2,0,0.3,0.1s0.1,0.1,0.1,0.2s0,0.2-0.1,0.2s-0.2,0.1-0.3,0.1s-0.2,0-0.3-0.1
		S377.6,188.2,377.6,188.1z"/>
	<path class="st1" d="M382.6,188.8v4.3h-0.7v-3.7h-1.3l-0.1,1.6c0,0.5-0.1,0.9-0.2,1.2s-0.2,0.5-0.4,0.6s-0.4,0.2-0.7,0.2H379v-0.6
		l0.1,0c0.2,0,0.3-0.1,0.4-0.2s0.2-0.3,0.2-0.5s0.1-0.5,0.1-0.9l0.1-2.1H382.6z"/>
</g>
<g>
	<path class="st1" d="M327.2,199.3h-1.7l-0.3,1h-0.8l1.6-4.3h0.7l1.6,4.3h-0.8L327.2,199.3z M325.7,198.7h1.2l-0.6-1.8L325.7,198.7z
		"/>
	<path class="st1" d="M329.8,196l1.2,3.3l1.2-3.3h1v4.3h-0.7v-1.4l0.1-1.9l-1.3,3.3h-0.5l-1.3-3.3l0.1,1.9v1.4h-0.7V196H329.8z"/>
	<path class="st1" d="M334.8,198.7v1.6H334V196h1.6c0.5,0,0.9,0.1,1.1,0.4c0.3,0.2,0.4,0.6,0.4,1c0,0.4-0.1,0.7-0.4,1
		c-0.3,0.2-0.7,0.3-1.2,0.3H334.8z M334.8,198.1h0.9c0.3,0,0.5-0.1,0.6-0.2s0.2-0.3,0.2-0.5c0-0.2-0.1-0.4-0.2-0.6s-0.3-0.2-0.6-0.2
		h-0.9V198.1z"/>
	<path class="st1" d="M339.8,199.3h-1.7l-0.3,1H337l1.6-4.3h0.7l1.6,4.3h-0.8L339.8,199.3z M338.3,198.7h1.2l-0.6-1.8L338.3,198.7z"
		/>
	<path class="st1" d="M344.8,196v4.3H344v-3.7h-1.3l-0.1,1.6c0,0.5-0.1,0.9-0.2,1.2s-0.2,0.5-0.4,0.6s-0.4,0.2-0.7,0.2h-0.2v-0.6
		l0.1,0c0.2,0,0.3-0.1,0.4-0.2s0.2-0.3,0.2-0.5s0.1-0.5,0.1-0.9l0.1-2.1H344.8z"/>
	<path class="st1" d="M348.6,196.6h-1.3v3.7h-0.7v-3.7h-1.3V196h3.4V196.6z"/>
	<path class="st1" d="M350,197.6h0.9c0.3,0,0.6,0.1,0.8,0.2s0.4,0.3,0.5,0.5s0.2,0.4,0.2,0.7c0,0.4-0.1,0.7-0.4,1s-0.6,0.4-1.1,0.4
		h-1.6V196h0.7V197.6z M350,198.2v1.4h0.9c0.2,0,0.4-0.1,0.6-0.2c0.1-0.1,0.2-0.3,0.2-0.5c0-0.2-0.1-0.4-0.2-0.5
		c-0.1-0.1-0.3-0.2-0.6-0.2H350z M353.5,200.3h-0.7V196h0.7V200.3z"/>
	<path class="st1" d="M357.8,200.3h-0.7v-1.9h-1.9v1.9h-0.7V196h0.7v1.8h1.9V196h0.7V200.3z"/>
	<path class="st1" d="M361.7,197.5l0.9-1.5h0.9l-1.3,2.1l1.3,2.2h-0.9l-0.9-1.6l-0.9,1.6h-0.9l1.3-2.2l-1.3-2.1h0.9L361.7,197.5z"/>
	<path class="st1" d="M365.4,198l1-2h0.8l-1.4,2.7v1.6H365v-1.6l-1.4-2.7h0.8L365.4,198z"/>
	<path class="st1" d="M368.4,198.7v1.6h-0.7V196h1.6c0.5,0,0.9,0.1,1.1,0.4c0.3,0.2,0.4,0.6,0.4,1c0,0.4-0.1,0.7-0.4,1
		c-0.3,0.2-0.7,0.3-1.2,0.3H368.4z M368.4,198.1h0.9c0.3,0,0.5-0.1,0.6-0.2s0.2-0.3,0.2-0.5c0-0.2-0.1-0.4-0.2-0.6s-0.3-0.2-0.6-0.2
		h-0.9V198.1z"/>
	<path class="st1" d="M372.1,198.9c0,0.3,0.1,0.5,0.3,0.7s0.4,0.2,0.7,0.2c0.3,0,0.5-0.1,0.7-0.3s0.3-0.5,0.3-1h-1.5v-0.6h1.5
		c0-0.4-0.1-0.7-0.3-1s-0.4-0.3-0.7-0.3c-0.3,0-0.5,0.1-0.6,0.2s-0.2,0.4-0.3,0.7h-0.7c0-0.5,0.2-0.8,0.5-1.1s0.7-0.4,1.1-0.4
		c0.3,0,0.7,0.1,0.9,0.2s0.5,0.4,0.6,0.7s0.2,0.7,0.2,1.1v0.4c0,0.4-0.1,0.8-0.2,1.1s-0.3,0.5-0.6,0.7s-0.6,0.2-0.9,0.2
		c-0.5,0-0.9-0.1-1.2-0.4s-0.5-0.6-0.5-1.1H372.1z"/>
	<path class="st1" d="M376.1,198.9c0,0.3,0.1,0.5,0.3,0.7s0.4,0.2,0.7,0.2c0.3,0,0.5-0.1,0.7-0.3s0.3-0.5,0.3-1h-1.5v-0.6h1.5
		c0-0.4-0.1-0.7-0.3-1s-0.4-0.3-0.7-0.3c-0.3,0-0.5,0.1-0.6,0.2s-0.2,0.4-0.3,0.7h-0.7c0-0.5,0.2-0.8,0.5-1.1s0.7-0.4,1.1-0.4
		c0.3,0,0.7,0.1,0.9,0.2s0.5,0.4,0.6,0.7s0.2,0.7,0.2,1.1v0.4c0,0.4-0.1,0.8-0.2,1.1s-0.3,0.5-0.6,0.7s-0.6,0.2-0.9,0.2
		c-0.5,0-0.9-0.1-1.2-0.4s-0.5-0.6-0.5-1.1H376.1z"/>
	<path class="st1" d="M382.7,196v4.3H382v-3.7h-1.3l-0.1,1.6c0,0.5-0.1,0.9-0.2,1.2s-0.2,0.5-0.4,0.6s-0.4,0.2-0.7,0.2h-0.2v-0.6
		l0.1,0c0.2,0,0.3-0.1,0.4-0.2s0.2-0.3,0.2-0.5s0.1-0.5,0.1-0.9l0.1-2.1H382.7z"/>
	<path class="st1" d="M384.2,198.9c0,0.3,0.1,0.5,0.3,0.7s0.4,0.2,0.7,0.2c0.3,0,0.5-0.1,0.7-0.3s0.3-0.5,0.3-1h-1.5v-0.6h1.5
		c0-0.4-0.1-0.7-0.3-1s-0.4-0.3-0.7-0.3c-0.3,0-0.5,0.1-0.6,0.2s-0.2,0.4-0.3,0.7h-0.7c0-0.5,0.2-0.8,0.5-1.1s0.7-0.4,1.1-0.4
		c0.3,0,0.7,0.1,0.9,0.2s0.5,0.4,0.6,0.7s0.2,0.7,0.2,1.1v0.4c0,0.4-0.1,0.8-0.2,1.1s-0.3,0.5-0.6,0.7s-0.6,0.2-0.9,0.2
		c-0.5,0-0.9-0.1-1.2-0.4s-0.5-0.6-0.5-1.1H384.2z"/>
	<path class="st1" d="M391,200.3h-0.7v-1.9h-1.9v1.9h-0.7V196h0.7v1.8h1.9V196h0.7V200.3z"/>
</g>
<g>
	<path class="st1" d="M300.2,43.3c0,0.5-0.2,0.8-0.5,1.1s-0.7,0.4-1.2,0.4c-0.3,0-0.6-0.1-0.9-0.2s-0.5-0.4-0.6-0.7s-0.2-0.6-0.2-1
		v-0.4c0-0.4,0.1-0.8,0.2-1.1s0.3-0.5,0.6-0.7s0.6-0.2,0.9-0.2c0.5,0,0.8,0.1,1.1,0.4s0.5,0.6,0.5,1.1h-0.7c0-0.3-0.1-0.5-0.3-0.7
		s-0.4-0.2-0.6-0.2c-0.3,0-0.6,0.1-0.7,0.4c-0.2,0.2-0.3,0.6-0.3,1v0.4c0,0.5,0.1,0.8,0.2,1.1c0.2,0.2,0.4,0.4,0.7,0.4
		c0.3,0,0.5-0.1,0.7-0.2s0.2-0.3,0.3-0.7H300.2z"/>
	<path class="st1" d="M302.3,42.4l1-2h0.8l-1.4,2.7v1.6h-0.7v-1.6l-1.4-2.7h0.8L302.3,42.4z"/>
	<path class="st1" d="M306.1,42l0.9-1.5h0.9l-1.3,2.1l1.3,2.2H307l-0.9-1.6l-0.9,1.6h-0.9l1.3-2.2l-1.3-2.1h0.9L306.1,42z"/>
	<path class="st1" d="M311.1,41h-2v1h0.9c0.3,0,0.6,0.1,0.8,0.2s0.4,0.3,0.5,0.5s0.2,0.4,0.2,0.7c0,0.4-0.1,0.7-0.4,1
		s-0.6,0.4-1.1,0.4h-1.6v-4.3h2.7V41z M309.1,42.7v1.4h0.9c0.2,0,0.4-0.1,0.6-0.2c0.1-0.1,0.2-0.3,0.2-0.5c0-0.2-0.1-0.4-0.2-0.5
		c-0.1-0.1-0.3-0.2-0.6-0.2H309.1z"/>
	<path class="st1" d="M314.5,43.7h-1.7l-0.3,1h-0.8l1.6-4.3h0.7l1.6,4.3h-0.8L314.5,43.7z M313.1,43.1h1.2l-0.6-1.8L313.1,43.1z"/>
	<path class="st1" d="M318.5,43.7h-1.7l-0.3,1h-0.8l1.6-4.3h0.7l1.6,4.3h-0.8L318.5,43.7z M317.1,43.1h1.2l-0.6-1.8L317.1,43.1z"/>
	<path class="st1" d="M322.9,41h-1.3v3.7h-0.7V41h-1.3v-0.6h3.4V41z"/>
	<path class="st1" d="M325.5,43.7h-1.7l-0.3,1h-0.8l1.6-4.3h0.7l1.6,4.3h-0.8L325.5,43.7z M324,43.1h1.2l-0.6-1.8L324,43.1z"/>
	<path class="st1" d="M327.8,43.1v1.6h-0.7v-4.3h1.6c0.5,0,0.9,0.1,1.1,0.4c0.3,0.2,0.4,0.6,0.4,1c0,0.4-0.1,0.7-0.4,1
		c-0.3,0.2-0.7,0.3-1.2,0.3H327.8z M327.8,42.5h0.9c0.3,0,0.5-0.1,0.6-0.2s0.2-0.3,0.2-0.5c0-0.2-0.1-0.4-0.2-0.6S329,41,328.7,41
		h-0.9V42.5z"/>
	<path class="st1" d="M331.7,42.1h0.9c0.3,0,0.6,0.1,0.8,0.2s0.4,0.3,0.5,0.5s0.2,0.4,0.2,0.7c0,0.4-0.1,0.7-0.4,1s-0.6,0.4-1.1,0.4
		h-1.6v-4.3h0.7V42.1z M331.7,42.7v1.4h0.9c0.2,0,0.4-0.1,0.6-0.2c0.1-0.1,0.2-0.3,0.2-0.5c0-0.2-0.1-0.4-0.2-0.5
		c-0.1-0.1-0.3-0.2-0.6-0.2H331.7z M335.2,44.7h-0.7v-4.3h0.7V44.7z"/>
	<path class="st1" d="M339.5,44.7h-0.7v-1.9h-1.9v1.9h-0.7v-4.3h0.7v1.8h1.9v-1.8h0.7V44.7z"/>
	<path class="st1" d="M344.8,41h-1.3v3.7h-0.7V41h-1.3v-0.6h3.4V41z"/>
	<path class="st1" d="M347.4,43.7h-1.7l-0.3,1h-0.8l1.6-4.3h0.7l1.6,4.3h-0.8L347.4,43.7z M346,43.1h1.2l-0.6-1.8L346,43.1z"/>
	<path class="st1" d="M352.4,40.4v4.3h-0.7V41h-1.3l-0.1,1.6c0,0.5-0.1,0.9-0.2,1.2s-0.2,0.5-0.4,0.6s-0.4,0.2-0.7,0.2h-0.2v-0.6
		l0.1,0c0.2,0,0.3-0.1,0.4-0.2s0.2-0.3,0.2-0.5s0.1-0.5,0.1-0.9l0.1-2.1H352.4z"/>
	<path class="st1" d="M356,41h-2v1h0.9c0.3,0,0.6,0.1,0.8,0.2s0.4,0.3,0.5,0.5s0.2,0.4,0.2,0.7c0,0.4-0.1,0.7-0.4,1
		s-0.6,0.4-1.1,0.4h-1.6v-4.3h2.7V41z M354,42.7v1.4h0.9c0.2,0,0.4-0.1,0.6-0.2c0.1-0.1,0.2-0.3,0.2-0.5c0-0.2-0.1-0.4-0.2-0.5
		c-0.1-0.1-0.3-0.2-0.6-0.2H354z"/>
	<path class="st1" d="M359.5,43.7h-1.7l-0.3,1h-0.8l1.6-4.3h0.7l1.6,4.3h-0.8L359.5,43.7z M358,43.1h1.2l-0.6-1.8L358,43.1z"/>
	<path class="st1" d="M363.7,40.4h0.7v4.3h-0.7v-3l-1.9,3h-0.7v-4.3h0.7v3L363.7,40.4z M363.7,39.3c0,0.2-0.1,0.4-0.3,0.6
		s-0.4,0.2-0.7,0.2s-0.5-0.1-0.7-0.2s-0.3-0.4-0.3-0.6h0.5c0,0.1,0,0.2,0.1,0.3s0.2,0.1,0.3,0.1s0.2,0,0.3-0.1s0.1-0.2,0.1-0.3
		H363.7z"/>
</g>
<g>
	<path class="st1" d="M419.7,553.6h-2v1h0.9c0.3,0,0.6,0.1,0.8,0.2s0.4,0.3,0.5,0.5s0.2,0.4,0.2,0.7c0,0.4-0.1,0.7-0.4,1
		s-0.6,0.4-1.1,0.4H417V553h2.7V553.6z M417.8,555.3v1.4h0.9c0.2,0,0.4-0.1,0.6-0.2s0.2-0.3,0.2-0.5c0-0.2-0.1-0.4-0.2-0.5
		c-0.1-0.1-0.3-0.2-0.6-0.2H417.8z"/>
	<path class="st1" d="M424.2,555.3c0,0.4-0.1,0.8-0.2,1.1c-0.1,0.3-0.4,0.6-0.6,0.7c-0.3,0.2-0.6,0.3-0.9,0.3
		c-0.3,0-0.7-0.1-0.9-0.3c-0.3-0.2-0.5-0.4-0.6-0.7s-0.2-0.7-0.2-1.1v-0.2c0-0.4,0.1-0.8,0.2-1.1s0.4-0.6,0.6-0.7s0.6-0.3,0.9-0.3
		s0.7,0.1,0.9,0.2c0.3,0.2,0.5,0.4,0.6,0.7c0.1,0.3,0.2,0.7,0.2,1.1V555.3z M423.5,555.1c0-0.5-0.1-0.8-0.3-1.1s-0.4-0.4-0.8-0.4
		c-0.3,0-0.6,0.1-0.8,0.4s-0.3,0.6-0.3,1.1v0.2c0,0.5,0.1,0.8,0.3,1.1s0.4,0.4,0.8,0.4c0.3,0,0.6-0.1,0.8-0.4s0.3-0.6,0.3-1.1V555.1
		z"/>
	<path class="st1" d="M427.7,553.6h-2v3.7H425V553h2.7V553.6z"/>
	<path class="st1" d="M431.8,558.3h-0.7v-1h-2.8v1h-0.7l0-1.6h0.3c0.2-0.2,0.3-0.4,0.4-0.7c0.1-0.3,0.2-0.7,0.2-1.1l0.1-1.9h2.7v3.7
		h0.5L431.8,558.3z M428.7,556.7h1.8v-3.1h-1.2l-0.1,1.2C429.2,555.6,429,556.3,428.7,556.7z"/>
	<path class="st1" d="M435.3,554.6l0.9-1.5h0.9l-1.3,2.1l1.3,2.2h-0.9l-0.9-1.6l-0.9,1.6h-0.9l1.3-2.2l-1.3-2.1h0.9L435.3,554.6z"/>
	<path class="st1" d="M440.1,556.3h-1.7l-0.3,1h-0.8l1.6-4.3h0.7l1.6,4.3h-0.8L440.1,556.3z M438.6,555.7h1.2l-0.6-1.8L438.6,555.7z
		"/>
	<path class="st1" d="M445,557.3h-0.7v-1.9h-1.9v1.9h-0.7V553h0.7v1.8h1.9V553h0.7V557.3z"/>
	<path class="st1" d="M449,555.3l0.9-2.2h0.8l-1.5,3.5l-0.1,0.3c-0.2,0.3-0.5,0.5-0.9,0.5l-0.3,0l0-0.6c0,0,0.1,0,0.2,0
		c0.2,0,0.4-0.1,0.4-0.3l0.2-0.4l-1.5-3.1h0.8L449,555.3z"/>
	<path class="st1" d="M452.7,555.3l0.9-2.2h0.8l-1.5,3.5l-0.1,0.3c-0.2,0.3-0.5,0.5-0.9,0.5l-0.3,0l0-0.6c0,0,0.1,0,0.2,0
		c0.2,0,0.4-0.1,0.4-0.3l0.2-0.4l-1.5-3.1h0.8L452.7,555.3z"/>
	<path class="st1" d="M458.2,553v4.3h-0.7v-3.7h-1.3l-0.1,1.6c0,0.5-0.1,0.9-0.2,1.2c-0.1,0.3-0.2,0.5-0.4,0.6s-0.4,0.2-0.7,0.2
		h-0.2v-0.6l0.1,0c0.2,0,0.3-0.1,0.4-0.2s0.2-0.3,0.2-0.5c0-0.2,0.1-0.5,0.1-0.9l0.1-2.1H458.2z"/>
</g>
<g>
	<path class="st1" d="M492.8,491.1l0.9-1.5h0.9l-1.3,2.1l1.3,2.2h-0.9l-0.9-1.6l-0.9,1.6H491l1.3-2.2l-1.3-2.1h0.9L492.8,491.1z"/>
	<path class="st1" d="M497.5,492.8h-1.7l-0.3,1h-0.8l1.6-4.3h0.7l1.6,4.3h-0.8L497.5,492.8z M496.1,492.2h1.2l-0.6-1.8L496.1,492.2z
		"/>
	<path class="st1" d="M501.8,490.2h-1.3v3.7h-0.7v-3.7h-1.3v-0.6h3.4V490.2z"/>
	<path class="st1" d="M504.4,492.8h-1.7l-0.3,1h-0.8l1.6-4.3h0.7l1.6,4.3h-0.8L504.4,492.8z M503,492.2h1.2l-0.6-1.8L503,492.2z"/>
	<path class="st1" d="M509.4,493.8h-0.7v-1.9h-1.9v1.9h-0.7v-4.3h0.7v1.8h1.9v-1.8h0.7V493.8z"/>
	<path class="st1" d="M514.7,490.2h-1.3v3.7h-0.7v-3.7h-1.3v-0.6h3.4V490.2z"/>
	<path class="st1" d="M516.8,491.8l0.9-2.2h0.8l-1.5,3.5l-0.1,0.3c-0.2,0.3-0.5,0.5-0.9,0.5l-0.3,0l0-0.6c0,0,0.1,0,0.2,0
		c0.2,0,0.4-0.1,0.4-0.3l0.2-0.4l-1.5-3.1h0.8L516.8,491.8z"/>
	<path class="st1" d="M520.6,491.8l0.9-2.2h0.8l-1.5,3.5l-0.1,0.3c-0.2,0.3-0.5,0.5-0.9,0.5l-0.3,0l0-0.6c0,0,0.1,0,0.2,0
		c0.2,0,0.4-0.1,0.4-0.3l0.2-0.4l-1.5-3.1h0.8L520.6,491.8z"/>
	<path class="st1" d="M526,489.6v4.3h-0.7v-3.7H524l-0.1,1.6c0,0.5-0.1,0.9-0.2,1.2c-0.1,0.3-0.2,0.5-0.4,0.6s-0.4,0.2-0.7,0.2h-0.2
		v-0.6l0.1,0c0.2,0,0.3-0.1,0.4-0.2s0.2-0.3,0.2-0.5c0-0.2,0.1-0.5,0.1-0.9l0.1-2.1H526z"/>
	<path class="st1" d="M531.1,490.2h-2v3.7h-0.7v-4.3h2.7V490.2z"/>
	<path class="st1" d="M535,491.8c0,0.4-0.1,0.8-0.2,1.1c-0.1,0.3-0.4,0.6-0.6,0.7c-0.3,0.2-0.6,0.3-0.9,0.3c-0.3,0-0.7-0.1-0.9-0.3
		c-0.3-0.2-0.5-0.4-0.6-0.7c-0.1-0.3-0.2-0.7-0.2-1.1v-0.2c0-0.4,0.1-0.8,0.2-1.1s0.4-0.6,0.6-0.7c0.3-0.2,0.6-0.3,0.9-0.3
		s0.7,0.1,0.9,0.2c0.3,0.2,0.5,0.4,0.6,0.7c0.1,0.3,0.2,0.7,0.2,1.1V491.8z M534.2,491.6c0-0.5-0.1-0.8-0.3-1.1
		c-0.2-0.3-0.4-0.4-0.8-0.4c-0.3,0-0.6,0.1-0.8,0.4s-0.3,0.6-0.3,1.1v0.2c0,0.5,0.1,0.8,0.3,1.1c0.2,0.3,0.4,0.4,0.8,0.4
		c0.3,0,0.6-0.1,0.8-0.4c0.2-0.2,0.3-0.6,0.3-1.1V491.6z"/>
	<path class="st1" d="M539,489.6v4.3h-0.7v-3.7h-1.3l-0.1,1.6c0,0.5-0.1,0.9-0.2,1.2c-0.1,0.3-0.2,0.5-0.4,0.6s-0.4,0.2-0.7,0.2
		h-0.2v-0.6l0.1,0c0.2,0,0.3-0.1,0.4-0.2s0.2-0.3,0.2-0.5c0-0.2,0.1-0.5,0.1-0.9l0.1-2.1H539z"/>
</g>
<g>
	<defs>
		<rect id="SVGID_00000013901806596087697240000002553649353761942434_" x="59.7" y="0.2" width="721.5" height="595.5"/>
	</defs>
	<clipPath id="SVGID_00000010293562213254015950000003444066173729061562_">
		<use xlink:href="#SVGID_00000013901806596087697240000002553649353761942434_"  style="overflow:visible;"/>
	</clipPath>
	<path style="clip-path:url(#SVGID_00000010293562213254015950000003444066173729061562_);fill:#1B1E33;" d="M446.5,249"/>
</g>
<path class="st6" d="M446.5,249"/>
<g>
	<defs>
		<rect id="SVGID_00000104690201783426930380000010607081322322012560_" x="59.7" y="0.2" width="721.5" height="595.5"/>
	</defs>
	<clipPath id="SVGID_00000099649361365063087430000003814911195253107118_">
		<use xlink:href="#SVGID_00000104690201783426930380000010607081322322012560_"  style="overflow:visible;"/>
	</clipPath>
	<path style="clip-path:url(#SVGID_00000099649361365063087430000003814911195253107118_);fill:none;stroke:#41AD49;" d="M781.2,80"
		/>
</g>
<path class="st8" d="M84.6,440.1"/>
<g>
	<defs>
		<rect id="SVGID_00000119796204262141855910000001830966805939876781_" x="59.7" y="0.2" width="721.5" height="595.5"/>
	</defs>
	<clipPath id="SVGID_00000060739612244961689560000017138443576306380192_">
		<use xlink:href="#SVGID_00000119796204262141855910000001830966805939876781_"  style="overflow:visible;"/>
	</clipPath>
	
		<path style="clip-path:url(#SVGID_00000060739612244961689560000017138443576306380192_);fill:none;stroke:#BD9F8C;stroke-width:0.5;" d="
		M201.1,337.5h8l-1.6,3.7C207.4,341.2,206.3,338.5,201.1,337.5z"/>
	
		<path style="clip-path:url(#SVGID_00000060739612244961689560000017138443576306380192_);fill:none;stroke:#BD9F8C;stroke-width:0.5;" d="
		M199.2,333.4h10.4l4.1-8.5C213.7,324.9,208.1,331.1,199.2,333.4z"/>
	
		<path style="clip-path:url(#SVGID_00000060739612244961689560000017138443576306380192_);fill:none;stroke:#BD9F8C;stroke-width:0.5;" d="
		M224.2,337.8c10.4,0.2,33.1,2.9,43.5,2.2c10.4-0.7,50.1-3.4,61.2-3.4s117.3-3.2,133.3-3.9c20.9-1,31-2.7,34.8,0
		s85.2,102.7,85.2,102.7s9,13.9,12.2,21.3c3.1,7.3,8.7,20.3,8.7,20.3l13.2,39.5c0,0,6.4,11.9,5.9,17.3c-7.8-2.7-30.1-8.3-38.4-10.3
		c-8.3-2-28.4-3.1-39.5-3.5c-11.1-0.4-29.5,2.7-40.4,2.3c-10.9-0.4-62.1-11.7-68.7-12.1c-6.7-0.4-21.8,3.4-34.5,6.3
		c-7.3,1.6-9.9,0.7-15.1,0.3c-7.8-0.7-77.8-9.7-89.5-11.3c-11.7-1.6-61.7-6.7-61.7-6.7l-17.4-47.4c0,0-6-21.9-6-27.4
		c0-5.5-11.9-50.5-4.5-64.8C210.1,351.9,213.8,337.5,224.2,337.8z"/>
	
		<path style="clip-path:url(#SVGID_00000060739612244961689560000017138443576306380192_);fill:none;stroke:#BD9F8C;stroke-width:0.5;" d="
		M781,546.3c0,0-39-8.2-45.9-8.8c-7-0.6-21.4,0.6-37.6,2.9c-16.1,2.3-29.5,3.8-43.1,2.3c-13.6-1.5-29.2-3.6-37-5.9
		c-7.8-2.4-30.1-9-37.9-10.3c-7.8-1.3-30.6-2.7-37.6-2.7s-29.5,2.7-37.9,2.3c-8.4-0.4-65.7-11.6-69-11.8c-6.7-0.6-35.1,8.2-44.8,7.4
		c-6.7-0.5-50.9-6-60.4-7.4c-9.5-1.3-94.6-11.1-94.6-11.1s1,6.6,1.8,17.6c0.8,11,5.8,53-2.6,74.9"/>
	
		<path style="clip-path:url(#SVGID_00000060739612244961689560000017138443576306380192_);fill:none;stroke:#BD9F8C;stroke-width:0.5;" d="
		M59.7,540.9c11.8,0.2,21-2.8,29-6.4c8.1-3.6,45.6-10.3,56.2-13.1c10.6-2.8,10.9-14.4,13.3-16.7c2.4-2.3,71.9-2.3,71.9-2.3
		s1.6,7.5,2.1,12.6c0.5,5.1,2.6,35.1,2.6,35.1s1.5,35.6-4.8,45.6"/>
	
		<path style="clip-path:url(#SVGID_00000060739612244961689560000017138443576306380192_);fill:none;stroke:#BD9F8C;stroke-width:0.5;" d="
		M264.2,334.5c7.8,0.2,28.9-1.5,38.9-2.3c10-0.8,37.9-1.5,56.2-1.5s127.2-3.7,127.2-3.7s7-0.6,5-3.7c-1.9-3.1-12.9-15.3-12.9-15.3
		s-32.3-40.6-35.1-40.9c-2.8-0.2-162.4,4.9-166.1,4.9c-3.7,0-15,0.7-22.5,6.1c-7.5,5.4-27.6,19.4-27.6,19.4
		c-0.8,1.4-11.6,26.9-8.9,31.7C221.3,334,256.4,334.3,264.2,334.5z"/>
	
		<path style="clip-path:url(#SVGID_00000060739612244961689560000017138443576306380192_);fill:none;stroke:#BD9F8C;stroke-width:0.5;" d="
		M672,261.4c2.5,14.2-7,19.6-7,19.6s-159.9,43.6-161.6,43.6c-1.7,0-4.2,0.3-7.8-4.5s-20-25.1-20-25.1s-4-9.6-7.6-31.5
		c-3.7-22-27.1-48.9-27.1-48.9l226.2,1.8C667,216.4,671.7,260.1,672,261.4z"/>
	
		<path style="clip-path:url(#SVGID_00000060739612244961689560000017138443576306380192_);fill:none;stroke:#BD9F8C;stroke-width:0.5;" d="
		M59.7,537.6c0,0,14.8-0.5,24.4-5c9.5-4.5,41.4-10.1,54.4-13.2c12.9-3,11.2-8.4,13.3-13.6c2-5.2,8.2-6.1,19.4-6.1
		c8.9,0,35.7-1,35.7-1c5.6,0.2,22.5-0.5,22.5-0.5s-13.1-36.5-15.1-43.3c-2.1-6.8-6.8-24.2-7.4-30.5c-0.6-6.3-6-35.4-6.3-38.7
		c-0.3-3.3-2.4-17.2,1.3-25.8c3.6-8.6,4.2-12.9,2-15.7c-4.7-6.7-19.8-5.1-28.8-5.4c-9-0.4-114.7,1.3-114.7,1.3"/>
	
		<path style="clip-path:url(#SVGID_00000060739612244961689560000017138443576306380192_);fill:none;stroke:#BD9F8C;stroke-width:0.5;" d="
		M231.5,290l21.6-50.2c0,0,17.9,2.8,22.2,6.9c4.4,4.1,6.1,11.2-2.7,16.3C263.9,268,231.5,290,231.5,290z"/>
	
		<path style="clip-path:url(#SVGID_00000060739612244961689560000017138443576306380192_);fill:none;stroke:#BD9F8C;stroke-width:0.5;" d="
		M248.4,238.4c0,0-4.1-1.1-7.9,0.9c-3.8,2.1-4.5,3.2-6.2,8.2c-1.7,5-8.6,26.5-8.6,30.3c0,3.8,0.9,9.7,0.9,9.7L248.4,238.4z"/>
	
		<path style="clip-path:url(#SVGID_00000060739612244961689560000017138443576306380192_);fill:none;stroke:#BD9F8C;stroke-width:0.5;" d="
		M60.3,336.9l114.7-3.2c0,0,19.9-1.2,31.5-9.3c11.7-8.1,15.6-29.9,17-33c0,0-1.9-9.4-0.1-17.4c1.8-7.9,6.4-33.3,14.2-37.3
		c7.8-4,13.8-1.4,13.8-1.4l9.2-20.4l-200.1-7.3"/>
	
		<path style="clip-path:url(#SVGID_00000060739612244961689560000017138443576306380192_);fill:none;stroke:#BD9F8C;stroke-width:0.5;" d="
		M244.2,211.2l17.2-29.1c0,0,0.6-2.8,6-2.6c5.5,0.2,8.9,0.7,6.9,4.9c-2.1,4.2-11,26.8-11,26.8H244.2z"/>
	
		<path style="clip-path:url(#SVGID_00000060739612244961689560000017138443576306380192_);fill:none;stroke:#BD9F8C;stroke-width:0.5;" d="
		M60.6,108.2l187.8-11.9c0,0,52.4-4,52.4,0c0,4-2.6,8.4-2.6,8.4s-17.5,60.7-19.4,66.3c-1.9,5.6-3.2,7.3-10.3,5.9
		c-7.1-1.4-8.7,3-8.7,3l-18.8,30.9l-180.3-7.7"/>
	
		<path style="clip-path:url(#SVGID_00000060739612244961689560000017138443576306380192_);fill:none;stroke:#BD9F8C;stroke-width:0.5;" d="
		M60.6,103.7c0,0,226.8-15.6,233.3-14.2c6.5,1.4,117.3-12.5,125.1-13.5c13.6-1.7,161.1-13.4,168.6-13.4c7.5,0,71.7-2.7,75.1-4.3
		c3.4-1.6-19.2-58.1-19.2-58.1"/>
	
		<path style="clip-path:url(#SVGID_00000060739612244961689560000017138443576306380192_);fill:none;stroke:#BD9F8C;stroke-width:0.5;" d="
		M279.5,181.2c3.6-0.5,9.8,0.9,9.8,6.5v23.9l-21.3-0.4L279.5,181.2z"/>
	
		<path style="clip-path:url(#SVGID_00000060739612244961689560000017138443576306380192_);fill:none;stroke:#BD9F8C;stroke-width:0.5;" d="
		M254.9,237.6l9.8-22.6h171.6c0,0,15.7,18.7,21.8,31.6c6.1,12.8-2.1,11-2.1,11s-14.3,5.9-42.9,5.9s-138.9,4.4-138.9,4.4
		s11.6-7.6,8.8-15.7C279.4,237.6,254.9,237.6,254.9,237.6z"/>
	
		<path style="clip-path:url(#SVGID_00000060739612244961689560000017138443576306380192_);fill:none;stroke:#BD9F8C;stroke-width:0.5;" d="
		M282.9,177.3c2,1.7,9.2,0.9,10.7,7c1.4,6.1,0,27.3,0,27.3l140-0.4L353.9,90.4l-48.5,4.9C305.5,95.3,280.9,175.6,282.9,177.3z"/>
	
		<path style="clip-path:url(#SVGID_00000060739612244961689560000017138443576306380192_);fill:none;stroke:#BD9F8C;stroke-width:0.5;" d="
		M667.6,212.1l-230-2l-79-120.2c4.3-3.5,15-2.7,23.8-4.6c8.9-1.9,60.6-7.2,102.8-10.2c42.2-3,163-11.3,171.6-10.6
		c8.6,0.7,11.6,1.9,13.3,8.8c1.7,6.9,10.3,19,6.8,46.7C675.2,133.8,667.6,212.1,667.6,212.1z"/>
	
		<path style="clip-path:url(#SVGID_00000060739612244961689560000017138443576306380192_);fill:none;stroke:#BD9F8C;stroke-width:0.5;" d="
		M449.7,265.4c0,0,0-3.9,6.2-3.9c6.2,0,6.9,1.4,7.6,7c0.7,5.6,5.5,18.3,5.5,18.3L449.7,265.4z"/>
	
		<path style="clip-path:url(#SVGID_00000060739612244961689560000017138443576306380192_);fill:none;stroke:#BD9F8C;stroke-width:0.5;" d="
		M649.8,0.3c0,0,16.7,52.2,26.1,60.4c4,3.4,104.6,19.1,104.6,19.1"/>
	
		<path style="clip-path:url(#SVGID_00000060739612244961689560000017138443576306380192_);fill:none;stroke:#BD9F8C;stroke-width:0.5;" d="
		M780.5,214.2l-108.3-2.1c0,0,5.6-74.1,8.3-88.9c2.7-14.8-0.3-33.6-2.7-40.5c-1.9-5.6-6.1-12.6-0.7-14.5
		c5.5-1.9,103.4,15.9,103.4,15.9"/>
	
		<path style="clip-path:url(#SVGID_00000060739612244961689560000017138443576306380192_);fill:none;stroke:#BD9F8C;stroke-width:0.5;" d="
		M780.9,542.4c0,0-27.3-5.7-42-8.3c-14.8-2.6-41.5,2.6-58.2,4.4c-16.7,1.8-30.9,0.1-40.1-1.1c-9.2-1.2-13.2-2.2-13.2-2.2
		s0.3-5.1-2.3-11.1c-4.4-9.9-9.1-21.9-10.8-27.6c-1.7-5.7-9.5-26-12-32.9c-2.5-6.9-9.5-19.4-12.2-23.9c-2.8-4.5-81-100.2-84.4-104.3
		c-3.4-4.1,0.8-6.1,0.8-6.1l161.7-44.7c0,0,8.5-4.5,8-18.1c-0.3-8.2-4.5-49.9-4.5-49.9l109.5,1.6"/>
	<path style="clip-path:url(#SVGID_00000060739612244961689560000017138443576306380192_);fill:#555442;" d="M498.9,442.5
		c0,0,3.8-7.1,4.5-8.7c15.1-2.2,26.7-15.3,26.7-31.2c0-17.4-14-31.5-31.2-31.5s-31.2,14.1-31.2,31.5c0,15.9,11.6,29,26.8,31.2
		C495.2,435.2,498.9,442.5,498.9,442.5"/>
	
		<path style="clip-path:url(#SVGID_00000060739612244961689560000017138443576306380192_);fill:none;stroke:#E8E4DD;stroke-width:0.9;" d="
		M498.9,442.5c0,0,3.8-7.1,4.5-8.7c15.1-2.2,26.7-15.3,26.7-31.2c0-17.4-14-31.5-31.2-31.5s-31.2,14.1-31.2,31.5
		c0,15.9,11.6,29,26.8,31.2C495.2,435.2,498.9,442.5,498.9,442.5z"/>
</g>
<g>
	<defs>
		<rect id="SVGID_00000145048371428526322580000016224903908610969736_" x="489.1" y="386.1" width="24.6" height="33.1"/>
	</defs>
	<clipPath id="SVGID_00000072978218999915297310000011939963377707585159_">
		<use xlink:href="#SVGID_00000145048371428526322580000016224903908610969736_"  style="overflow:visible;"/>
	</clipPath>
	<g style="clip-path:url(#SVGID_00000072978218999915297310000011939963377707585159_);">
		<defs>
			<rect id="SVGID_00000000910997592816099670000003774483875627210642_" x="489.1" y="386.1" width="24.6" height="33.1"/>
		</defs>
		<clipPath id="SVGID_00000061467311426450075240000008083202805707079815_">
			<use xlink:href="#SVGID_00000000910997592816099670000003774483875627210642_"  style="overflow:visible;"/>
		</clipPath>
		
			<g transform="matrix(1 0 0 1 -3.051758e-05 0)" style="clip-path:url(#SVGID_00000061467311426450075240000008083202805707079815_);">
			
				<image style="overflow:visible;" width="115" height="155" xlink:href="75C71E415B183112.png"  transform="matrix(0.2138 0 0 0.2136 489.1328 386.119)">
			</image>
		</g>
	</g>
</g>
</svg>
