<svg xmlns="http://www.w3.org/2000/svg" width="106" height="31" viewBox="0 0 106 31">
  <g id="Group_14" data-name="Group 14" transform="translate(-241 -690)">
    <text id="_360_ҮЗЭХ" data-name="360° ҮЗЭХ" transform="translate(278.767 699)" fill="#565440" font-size="11" font-family="Roboto-Regular, Roboto"><tspan x="-25.834" y="12">360°</tspan><tspan y="12" font-size="6.416" baseline-shift="3.6662998971165743"> </tspan><tspan y="12">ҮЗЭХ</tspan></text>
    <g id="Rectangle_19" data-name="Rectangle 19" transform="translate(241 690)" fill="none" stroke="#c49f8a" stroke-width="1">
      <rect width="106" height="31" rx="15.5" stroke="none"/>
      <rect x="0.5" y="0.5" width="105" height="30" rx="15" fill="none"/>
    </g>
    <path id="Path_7" data-name="Path 7" d="M1638.067,4880.668l1.839,2.8a9.275,9.275,0,0,1-7.619,5.135c-5.566.414-7.82-4.895-7.82-4.895s2.02-5.118,6.927-5.118,4.515,3.9,4.515,3.9a3.666,3.666,0,0,1-3.837,3.581,3.8,3.8,0,0,1-3.891-3.581" transform="translate(-1367.233 -4178)" fill="none" stroke="#565440" stroke-width="1"/>
  </g>
</svg>
