<?xml version="1.0" encoding="utf-8"?>
<!-- Generator: Adobe Illustrator 26.1.0, SVG Export Plug-In . SVG Version: 6.00 Build 0)  -->
<svg version="1.1" id="Layer_1" xmlns="http://www.w3.org/2000/svg" xmlns:xlink="http://www.w3.org/1999/xlink" x="0px" y="0px"
	 viewBox="0 0 612 792" style="enable-background:new 0 0 612 792;" xml:space="preserve">
<style type="text/css">
	.st0{fill:#FFFFFF;}
</style>
<g>
	<g>
		<path class="st0" d="M391.6,390.5c1.8,6.3,6.3,9.4,11.4,12.8c4.5-14,8.9-27.9,13.4-42.1c0.5,0.6,0.7,0.7,0.8,0.9
			c3.3,9.9,6.8,19.7,9.7,29.7c1.6,5.7,5.9,8.4,10.8,11.6c6.1-19.4,12.1-38.5,18.2-57.6c-4.2,0-8.1,0-12,0c3.6,2.4,3.6,5.6,2.7,9
			c-0.1,0.5-0.3,1-0.4,1.5c-3.4,10.8-6.8,21.7-10.2,32.5c-0.1,0.4-0.5,0.8-0.8,1.3c-0.3-0.5-0.5-0.7-0.6-1c-2.8-8.5-5.6-17-8.3-25.6
			c-1.8-5.8-4.6-11.4-4.8-17.7c-3.7,0-7.4,0-11.6,0c3.7,2.8,3.1,6,2.3,9.2c-0.2,0.9-0.5,1.8-0.8,2.7c-3.3,10.4-6.5,20.8-9.8,31.3
			c-0.1,0.4-0.5,0.8-0.9,1.4c-0.3-0.6-0.5-0.9-0.6-1.2c-1.6-5.1-3.3-10.2-4.9-15.3c-2.8-9.1-5.7-18.2-8.5-27.3
			c-0.1-0.4-0.6-0.9-0.9-0.9c-3.5-0.1-7.1,0-10.5,0c1.5,2.5,3.2,4.6,4,7C383.5,365.2,387.9,377.7,391.6,390.5z M76.3,414.7
			c0,0.3,0,0.6,0,0.9c1.2,0.1,2.5,0.2,3.7,0.2c47.4,0.6,94.9,1.5,142.3,1.6c68,0.2,136-0.2,204.1-0.5c34.5-0.2,68.9-0.7,103.4-1.1
			c1.1,0,2.2-0.2,3.3-0.3c0-0.3,0-0.6-0.1-0.9C380.7,412.5,228.5,412.9,76.3,414.7z M330.3,400.9c16.1,4.8,33.5-2.7,39.4-17.1
			c3.9-9.3,3.2-18.6-2.8-27c-6.3-8.7-15-13-26.2-12.4c-5.1-0.3-10.2,0.6-15.2,2.9c-12.2,5.8-18.8,17.1-16.8,30.3
			C310.7,390,318.5,397.4,330.3,400.9z M329,352.7c11.6-6.8,26.9-1.1,31.4,11.6c2.3,6.6,2.6,13.2-0.1,19.7
			c-5.8,13.8-25.1,16.8-35.3,5.5c-4.5-4.9-6.8-10.7-6.8-17.4C318.3,363.8,321.6,357.1,329,352.7z M528.8,374.1
			c1.4-0.5,2.4-0.8,3.3-1.2c7.5-2.9,11.8-10,10.2-16.7c-1.4-5.9-6.6-10.1-13.8-10.4c-7.7-0.3-15.4-0.1-23.3-0.1
			c2.8,4.3,2.9,4.5,2.9,10.1c0,10.9,0.1,21.8,0,32.7c0,4.2,0.8,8.7-2.9,12.1c5,0,9.6,0,14.3,0c-2.3-2.1-2.6-4.7-2.6-7.3
			c-0.1-13.5-0.1-27,0-40.5c0-0.6,0.8-1.7,1.4-1.7c2.5-0.2,5.2-0.5,7.7-0.1c4.3,0.6,7.4,3.7,8,7.4c0.8,4.4-0.9,8.3-4.9,10.4
			c-2.6,1.3-5.4,2.1-8.2,3.1c-0.4,0.2-0.9,0.3-1.5,0.5c0.2,0.5,0.4,0.8,0.6,1.1c7.8,12.2,17.4,23.1,26.6,34.2
			c1.3,1.5,3.3,2.9,5.2,3.3c3.7,0.7,7.6,0.7,11.4,0.9C549.1,401.4,540.4,386.7,528.8,374.1z M123.5,399.7c-0.2,0.3-0.5,0.6-0.8,1
			c4.7,0,9.2,0,13.7,0c0.1-0.2,0.2-0.3,0.3-0.5c-3.3-1.6-3.9-4.4-4-7.5c0-1.2-0.1-2.5-0.1-3.7c-0.1-10.2-0.1-20.4-0.1-30.6
			c0-0.2,0.2-0.5,0.4-0.8c0.4,0.3,0.7,0.5,0.9,0.7c6.8,8.4,13.6,16.9,20.4,25.3c3.8,4.7,7.7,9.5,11.7,14.1c2.3,2.7,5.3,4.6,9.2,5.7
			c0-1,0-1.7,0-2.4c0-15.1,0-30.2,0-45.3c0-3.8,0.3-7.4,3.7-9.9c0,0-0.1-0.3-0.1-0.3c-4.5,0-8.9,0-13.3,0c4.5,3.4,3.5,8.2,3.5,12.5
			c0.1,8.8,0,17.6,0,26.4c0,1,0,2.1,0,3.1c-0.2,0.1-0.3,0.1-0.5,0.2c-0.8-1-1.6-2.1-2.4-3.1c-10.3-12.8-20.7-25.5-31-38.3
			c-0.3-0.4-0.9-1-1.3-1c-3.6-0.1-7.2,0-10.9,0c1.2,1.9,2.6,3.4,3.2,5.1c0.6,1.7,0.5,3.7,0.5,5.6c0,10.3,0,20.7,0,31
			c0,2.5,0.1,5.1-0.4,7.6C125.8,396.5,124.4,398.1,123.5,399.7z M204.9,400.5c11.1,3.1,22.1,1.6,33.1-0.6c0.4-0.1,1-1,1-1.5
			c0-7.5,0-15,0-22.5c0-1,0-2,0-2.8c-3.9,0-7.7,0-12.2,0c3.3,2.2,3.3,5,3.4,7.7c0.1,4,0,7.9,0.1,11.9c0,1.6-0.6,2.4-2,2.5
			c-4.4,0.4-8.8,1.2-13.1,0.9c-10.9-0.7-19.7-9-21.5-19.5c-2.2-12.7,5-23.3,17.8-25.9c7.5-1.5,14.7-0.6,21.5,4.2
			c0-3,0.1-5.6-0.1-8.2c0-0.5-0.9-1.3-1.5-1.4c-10.2-1.3-20.3-2-30.1,2.1c-6.2,2.6-11.3,6.5-14.4,12.5
			C179.2,374.3,183.6,394.6,204.9,400.5z M463.2,355.7c0,10,0.1,20.1,0,30.1c-0.1,5.1,1.2,10.6-3,15c1.3,0,2.3,0,3.3,0
			c10,0,20,0,30,0c0.7,0,2-0.4,2.2-0.9c1.2-3,2.2-6.2,3.4-9.7c-0.7,0.4-1.1,0.5-1.3,0.7c-3.5,2.8-7.6,4.1-12,4.1
			c-4,0-8.1-0.4-12.1-0.8c-0.6-0.1-1.6-1.1-1.7-1.7c-0.1-5.7-0.1-11.4,0-17.1c0-0.5,0.9-1.5,1.3-1.5c4.3,0.3,8.8-1,12.8,1.6
			c0-2.7,0-5.2,0-7.6c-4.3,0-8.3,0-12.4,0c-1.1,0-1.8-0.2-1.8-1.5c0-4.3,0-8.7,0.1-13c0-0.6,0.8-1.6,1.3-1.6
			c6-0.4,12.2-1.7,17.6,2.4c0.1,0,0.2-0.1,0.3-0.1c0-2.5,0.1-4.9-0.1-7.4c0-0.5-0.9-1.3-1.3-1.3c-8.7,0-17.5,0.1-26.2,0.2
			c-1,0-2.1,0-3.8,0C463.5,348.6,463.2,352.2,463.2,355.7z M275.5,351.4c1.3,0,2.7,0.1,4,0c1.6-0.1,2.2,0.4,2.2,2.1
			c-0.1,11.5,0,23-0.1,34.5c0,4.4,0.9,9.1-2.9,12.8c5.2,0,10.2,0,15.2,0c0.1-0.1,0.3-0.3,0.4-0.4c-4.6-2.5-3.7-6.7-3.9-10.6
			c0-0.8,0-1.6,0-2.4c0-11.3,0-22.5-0.1-33.8c0-1.7,0.6-2.1,2.2-2c4.6,0.3,9.6-1.2,13.5,3c0.8-3.2,1.5-6,2.2-8.9
			c-0.3-0.2-0.4-0.3-0.5-0.3c-12.7,0.1-25.4,0.2-38.1,0.2c-3.2,0-3.3-0.1-4.2,3c-0.6,1.9-1.1,3.7-1.6,5.6
			C267.6,351.8,271.5,351.3,275.5,351.4z M60.9,402.5c-0.1-15.2-0.3-30.5-0.4-45.7c0-3.9-0.5-8,3.2-11.2c-5.2,0-10,0-14.8,0
			c-0.1,0.2-0.3,0.3-0.4,0.5c3.4,2.2,3,5.6,3.1,8.8c0,0.1,0,0.3,0,0.4c0,13.7,0.2,27.5-0.1,41.2c-0.1,5.1,1.6,10.7-2.4,15.2
			c4.9,0,9.6,0,14.5,0c-2.5-3.7-2.5-3.7-2.7-8.6C60.9,402.9,60.9,402.7,60.9,402.5z M62.8,370.6c-0.8,1.1-1,1.8-0.1,3
			c5.9,7.6,11.7,15.4,17.7,23c1,1.3,2.4,2.4,3.9,3.1c4.3,2,8.8,1,13.4,0.9c-0.4-0.5-0.8-0.8-1.2-1.1c-2.3-1.8-5-3.2-6.8-5.4
			c-6.1-7.4-12-14.9-17.9-22.5c-0.4-0.5-0.3-1.7,0-2.1c5.9-7.5,11.9-14.8,17.9-22.2c0.3-0.4,0.5-0.9,0.9-1.5c-4.9,0-9.6,0-14.9,0
			c4.1,3.2,1.7,5.8-0.2,8.3C71.3,359.6,67.1,365.1,62.8,370.6z M103.6,355.4c0,11.3,0,22.5,0,33.8c0,4,0.5,8.3-2.9,11.5
			c4.9,0,9.6,0,15.1,0c-3.2-2.3-3.2-5.2-3.4-8c0-0.9,0-1.9,0-2.8c0-10-0.1-19.9,0-29.9c0.1-4.9-1.2-10.1,3-14.3c-5,0-9.8,0-14.5,0
			c-0.1,0.2-0.3,0.3-0.4,0.5C103.9,348.5,103.6,352,103.6,355.4z M79.6,432.9h-1.5v14.9h6.3v-1.2h-4.8V432.9z M99.7,442.4
			c0,1.1-0.2,2-0.6,2.7c-0.4,0.7-0.9,1.2-1.4,1.4c-0.6,0.3-1.2,0.4-1.8,0.4c-0.7,0-1.3-0.1-1.9-0.4c-0.6-0.3-1.1-0.8-1.4-1.5
			c-0.4-0.7-0.6-1.6-0.6-2.6v-9.6h-1.5v9.3c0,1.6,0.3,2.8,0.8,3.7c0.6,0.9,1.2,1.5,2,1.8c0.8,0.3,1.6,0.5,2.4,0.5
			c0.8,0,1.6-0.2,2.4-0.5c0.8-0.3,1.5-0.9,2-1.8c0.6-0.9,0.8-2.1,0.8-3.7v-9.3h-1.4V442.4z M117.3,432.9h-1.6l-3.3,6.1l-3.3-6.1
			h-1.6l4.1,7.3l-4.5,7.6h1.6l3.6-6.5l3.6,6.5h1.6l-4.5-7.6L117.3,432.9z M132.8,442.4c0,1.1-0.2,2-0.6,2.7
			c-0.4,0.7-0.9,1.2-1.4,1.4c-0.6,0.3-1.2,0.4-1.8,0.4c-0.7,0-1.3-0.1-1.9-0.4c-0.6-0.3-1.1-0.8-1.4-1.5c-0.4-0.7-0.6-1.6-0.6-2.6
			v-9.6h-1.5v9.3c0,1.6,0.3,2.8,0.8,3.7c0.6,0.9,1.2,1.5,2,1.8c0.8,0.3,1.6,0.5,2.4,0.5c0.8,0,1.6-0.2,2.4-0.5
			c0.8-0.3,1.5-0.9,2-1.8c0.6-0.9,0.8-2.1,0.8-3.7v-9.3h-1.4V442.4z M148.3,440.2c0.7-0.4,1.2-0.9,1.5-1.4c0.3-0.6,0.5-1.2,0.5-1.9
			c0-1.1-0.2-2-0.7-2.6c-0.5-0.6-1.1-1-1.7-1.2c-0.6-0.2-1.2-0.3-1.8-0.3h-4v14.9h1.5v-6.9h0.6l5.1,6.9h1.7l-5.3-6.9
			C146.7,440.8,147.6,440.6,148.3,440.2z M143.5,439.7v-5.7h1.8c1.1,0,1.9,0.2,2.5,0.6c0.6,0.4,0.9,1.1,0.9,2.3
			c0,1.9-1.3,2.8-3.8,2.8H143.5z M161,439.6l-3.8-6.7h-1.6l4.7,8v6.9h1.5v-6.9l4.7-8h-1.6L161,439.6z M182.8,447.8h1.5l2.1-4.9h6.2
			l2.1,4.9h1.5l-6.7-15.3L182.8,447.8z M186.9,441.7l2.6-6.1l2.6,6.1H186.9z M209.8,433.7c-0.9-0.5-2-0.8-3.1-0.8h-4.1v14.9h1.5v-7
			h2.7c1.2,0,2.2-0.3,3.1-0.8c0.9-0.5,1.4-1.6,1.4-3.2C211.2,435.2,210.7,434.2,209.8,433.7z M206.6,439.6H204v-5.5h2.6
			c0.8,0,1.5,0.2,2.1,0.6c0.6,0.4,0.9,1.1,0.9,2.2C209.7,438.7,208.7,439.6,206.6,439.6z M216.6,447.8h1.5l2.1-4.9h6.2l2.1,4.9h1.5
			l-6.7-15.3L216.6,447.8z M220.7,441.7l2.6-6.1l2.6,6.1H220.7z M242.6,440.2c0.7-0.4,1.2-0.9,1.5-1.4c0.3-0.6,0.5-1.2,0.5-1.9
			c0-1.1-0.2-2-0.7-2.6c-0.5-0.6-1.1-1-1.7-1.2c-0.6-0.2-1.2-0.3-1.8-0.3h-4v14.9h1.5v-6.9h0.6l5.1,6.9h1.7l-5.3-6.9
			C241,440.8,241.9,440.6,242.6,440.2z M237.8,439.7v-5.7h1.8c1.1,0,1.9,0.2,2.5,0.6c0.6,0.4,0.9,1.1,0.9,2.3c0,1.9-1.3,2.8-3.8,2.8
			H237.8z M250,434.1h4v13.7h1.5v-13.7h4v-1.2H250V434.1z M273,445.6l-6.2-13.3l-2,15.5h1.3l1.4-11l5.5,11.6l5.5-11.6l1.4,11h1.3
			l-2-15.5L273,445.6z M288.3,447.8h8v-1.2h-6.5V440h6.3v-1.2h-6.3v-4.8h6.5v-1.2h-8V447.8z M314.9,444.7l-11.3-12.4v15.5h1.5v-11.8
			l11.3,12.4v-15.5h-1.5V444.7z M322.7,434.1h4v13.7h1.5v-13.7h4v-1.2h-9.4V434.1z M361.3,442.2l-0.9-0.7l-2,2.4l-3.6-4.4
			c1.1-0.8,1.8-1.4,2.2-1.9c0.4-0.5,0.6-1.1,0.6-1.7c0-0.8-0.2-1.5-0.7-2.1c-0.5-0.6-1.2-0.8-2.2-0.8c-0.6,0-1.1,0.1-1.6,0.4
			c-0.5,0.2-0.9,0.6-1.2,1c-0.3,0.4-0.4,1-0.4,1.5c0,0.6,0.1,1.1,0.4,1.6c0.3,0.5,0.7,1.1,1.3,1.8c-0.8,0.5-1.5,1-2,1.4
			c-0.5,0.4-0.9,0.9-1.3,1.5c-0.3,0.6-0.5,1.2-0.5,2c0,0.7,0.2,1.3,0.5,1.9c0.3,0.6,0.8,1.1,1.5,1.6c0.7,0.4,1.5,0.6,2.4,0.6
			c0.6,0,1.2-0.1,1.6-0.2c0.5-0.1,0.9-0.4,1.4-0.8c0.5-0.5,1-1,1.5-1.5l1.7,2.2h1.5l-2.4-3L361.3,442.2z M352.6,435.8
			c0-0.6,0.2-1,0.6-1.4c0.4-0.3,0.8-0.5,1.3-0.5c0.3,0,0.6,0.1,0.9,0.3c0.3,0.2,0.5,0.4,0.6,0.7c0.1,0.3,0.2,0.6,0.2,0.9
			c0,0.6-0.2,1.1-0.5,1.5c-0.3,0.4-0.8,0.9-1.6,1.3C353.1,437.5,352.6,436.6,352.6,435.8z M356,446.2c-0.4,0.3-0.7,0.6-1,0.7
			c-0.3,0.1-0.7,0.2-1.2,0.2c-0.6,0-1.1-0.1-1.6-0.4c-0.5-0.3-0.8-0.7-1.1-1.1c-0.3-0.5-0.4-1-0.4-1.5c0-0.6,0.1-1.1,0.4-1.6
			c0.2-0.4,0.6-0.8,0.9-1.2c0.4-0.3,1-0.8,1.7-1.3l3.8,4.7C356.9,445.4,356.4,445.9,356,446.2z M386.8,433.7c-0.9-0.5-2-0.8-3.1-0.8
			h-4.1v14.9h1.5v-7h2.7c1.2,0,2.2-0.3,3.1-0.8c0.9-0.5,1.4-1.6,1.4-3.2C388.2,435.2,387.7,434.2,386.8,433.7z M383.6,439.6H381
			v-5.5h2.6c0.8,0,1.5,0.2,2.1,0.6c0.6,0.4,0.9,1.1,0.9,2.2C386.7,438.7,385.7,439.6,383.6,439.6z M395.3,447.8h8v-1.2h-6.5V440h6.3
			v-1.2h-6.3v-4.8h6.5v-1.2h-8V447.8z M421.9,444.7l-11.3-12.4v15.5h1.5v-11.8l11.3,12.4v-15.5h-1.5V444.7z M429.7,434.1h4v13.7h1.5
			v-13.7h4v-1.2h-9.4V434.1z M455.5,439H447v-6.1h-1.5v14.9h1.5v-7.6h8.6v7.6h1.4v-14.9h-1.4V439z M478,434.6
			c-0.7-0.7-1.6-1.2-2.6-1.6c-1-0.4-2-0.6-3.1-0.6c-1.2,0-2.3,0.2-3.3,0.6c-1,0.4-1.8,1-2.6,1.7c-0.7,0.7-1.2,1.6-1.6,2.5
			c-0.4,0.9-0.6,2-0.6,3c0,1.2,0.2,2.2,0.6,3.2c0.4,1,1,1.8,1.8,2.5c0.7,0.7,1.6,1.2,2.6,1.6c1,0.4,2,0.6,3.1,0.6
			c1.1,0,2.1-0.2,3.1-0.6c1-0.4,1.8-0.9,2.6-1.6c0.8-0.7,1.3-1.5,1.8-2.5c0.4-1,0.6-2.1,0.6-3.2c0-1.2-0.2-2.3-0.6-3.2
			C479.4,436.1,478.8,435.3,478,434.6z M478.4,443c-0.3,0.8-0.8,1.5-1.4,2.1c-0.6,0.6-1.3,1.1-2.1,1.4c-0.8,0.3-1.6,0.5-2.5,0.5
			c-0.9,0-1.7-0.2-2.5-0.5c-0.8-0.3-1.5-0.8-2.1-1.4c-0.6-0.6-1.1-1.3-1.4-2.1c-0.3-0.8-0.5-1.7-0.5-2.7c0-1.3,0.3-2.4,0.9-3.5
			c0.6-1,1.4-1.8,2.4-2.4c1-0.6,2.1-0.8,3.3-0.8c0.9,0,1.7,0.2,2.5,0.5c0.8,0.3,1.5,0.8,2.1,1.4c0.6,0.6,1.1,1.3,1.4,2.1
			c0.3,0.8,0.5,1.7,0.5,2.7C478.9,441.3,478.7,442.2,478.4,443z M496.7,442.4c0,1.1-0.2,2-0.6,2.7c-0.4,0.7-0.9,1.2-1.4,1.4
			c-0.6,0.3-1.2,0.4-1.8,0.4c-0.7,0-1.3-0.1-1.9-0.4c-0.6-0.3-1.1-0.8-1.4-1.5c-0.4-0.7-0.6-1.6-0.6-2.6v-9.6h-1.5v9.3
			c0,1.6,0.3,2.8,0.8,3.7c0.6,0.9,1.2,1.5,2,1.8c0.8,0.3,1.6,0.5,2.4,0.5c0.8,0,1.6-0.2,2.4-0.5c0.8-0.3,1.5-0.9,2-1.8
			c0.6-0.9,0.8-2.1,0.8-3.7v-9.3h-1.4V442.4z M512.3,440.2c-0.5-0.3-1.2-0.7-2-1.1c-0.8-0.4-1.4-0.7-1.8-0.9
			c-0.4-0.2-0.7-0.5-1.1-0.9c-0.3-0.4-0.5-0.9-0.5-1.4c0-0.3,0.1-0.7,0.3-1c0.2-0.4,0.4-0.7,0.8-0.9c0.4-0.2,0.9-0.4,1.6-0.4
			c0.7,0,1.3,0.2,1.7,0.5c0.4,0.3,0.8,0.7,1,1.2l1.2-0.7c-0.7-1.5-2-2.3-3.9-2.3c-1,0-1.9,0.2-2.5,0.6c-0.6,0.4-1,0.8-1.3,1.4
			c-0.2,0.5-0.4,1-0.4,1.6c0,0.7,0.2,1.3,0.5,1.8c0.3,0.5,0.8,1,1.3,1.3c0.5,0.4,1.2,0.7,2,1.1c0.6,0.3,1.2,0.6,1.6,0.8
			c0.4,0.2,0.7,0.5,1,0.7c0.3,0.3,0.5,0.5,0.6,0.9c0.1,0.3,0.2,0.7,0.2,1.1c0,0.9-0.3,1.7-0.9,2.3c-0.6,0.6-1.3,0.9-2.3,0.9
			c-0.6,0-1.2-0.1-1.7-0.4c-0.5-0.3-0.9-0.6-1.2-1c-0.3-0.4-0.6-0.9-0.7-1.4l-1.4,0.7c0.2,0.5,0.5,1,0.9,1.5
			c0.4,0.5,0.9,0.9,1.6,1.3c0.7,0.4,1.4,0.5,2.3,0.5c1,0,1.8-0.2,2.5-0.6c0.7-0.4,1.3-1,1.7-1.7c0.4-0.7,0.6-1.5,0.6-2.3
			c0-0.8-0.2-1.5-0.5-2.1C513.3,441,512.9,440.5,512.3,440.2z M521.2,447.8h8v-1.2h-6.5V440h6.3v-1.2h-6.3v-4.8h6.5v-1.2h-8V447.8z"
			/>
	</g>
</g>
</svg>
