<svg xmlns="http://www.w3.org/2000/svg" width="1922" height="244.751" viewBox="0 0 1922 244.751">
  <path id="Path_11" data-name="Path 11" d="M38.026,12.13H187.911V29.47H13.184V13.964l144.05-209.739H17.518v-17.506H182.576v14.672ZM366.306-38.554H256.1L231.093,29.47H209.585L301.45-213.281h19.507L412.822,29.47H391.482ZM262.437-56.06H359.8L311.12-188.273ZM628.4,29.47H607.723V-86.9H469.009V29.47H448.5V-213.281h20.507v109.038H607.723V-213.281H628.4ZM824.132-38.554h-110.2L688.918,29.47H667.411l91.865-242.751h19.507L870.648,29.47H849.307ZM720.262-56.06H817.63L768.946-188.273Zm448.989,85.53h-20.674V-86.9H1009.863V29.47H989.356V-213.281h20.507v109.038h138.715V-213.281h20.674Zm195.735-68.024h-110.2L1229.773,29.47h-21.508l91.865-242.751h19.507L1411.5,29.47h-21.341ZM1261.117-56.06h97.367L1309.8-188.273Zm186.065,85.53V-213.281h67.857q29.844,0,53.519,13.588t36.929,38.93q13.255,25.342,13.255,57.687v22.341q0,32.511-13.171,57.687a93.716,93.716,0,0,1-37.1,38.847q-23.925,13.671-54.936,13.671Zm20.507-225.245V12.13H1513.7q38.347,0,61.521-25.425T1598.4-82.069V-103.41q0-41.848-22.841-67.023t-60.188-25.342ZM1695.768,29.47h-20.507V-213.281h20.507Zm65.856,0V-213.281h67.857q29.844,0,53.519,13.588t36.929,38.93q13.255,25.342,13.255,57.687v22.341q0,32.511-13.171,57.687a93.716,93.716,0,0,1-37.1,38.847Q1858.991,29.47,1827.98,29.47Zm20.507-225.245V12.13h46.016q38.347,0,61.521-25.425t23.175-68.774V-103.41q0-41.848-22.841-67.023t-60.188-25.342Z" transform="translate(-12.184 214.281)" fill="none" stroke="#514e3e" stroke-width="2"/>
</svg>
