<?xml version="1.0" encoding="utf-8"?>
<!-- Generator: Adobe Illustrator 26.1.0, SVG Export Plug-In . SVG Version: 6.00 Build 0)  -->
<svg version="1.1" id="Layer_1" xmlns="http://www.w3.org/2000/svg" xmlns:xlink="http://www.w3.org/1999/xlink" x="0px" y="0px"
	 viewBox="0 0 612 792" style="enable-background:new 0 0 612 792;" xml:space="preserve">
<style type="text/css">
	.st0{fill:#57543E;}
</style>
<g>
	<g>
		<path class="st0" d="M282.3,422.6c-0.5-51.4-1.1-102.7-1.4-154.1c-0.1-13.2-1.8-27,10.8-37.7c-17.5,0-33.6,0-49.7,0
			c-0.4,0.6-0.9,1.1-1.3,1.7c11.3,7.5,10,19,10.6,29.8c0,0.5,0,1,0,1.5c0,46.3,0.6,92.5-0.2,138.8c-0.3,17.3,5.4,36-8.2,51.2
			c16.4,0,32.3,0,48.7,0c-8.3-12.5-8.3-12.5-9.1-29C282.3,424.1,282.3,423.4,282.3,422.6z M401.7,412.2c-7.7-6-16.8-10.9-22.9-18.2
			c-20.7-24.8-40.5-50.4-60.3-75.8c-1.2-1.5-1.1-5.6,0.1-7.2c19.9-25.1,40.2-50,60.3-75c1.1-1.4,1.8-3,2.9-4.9
			c-16.7,0-32.3,0-50.1,0c13.7,10.9,5.6,19.6-0.6,27.9c-13.9,18.9-28.2,37.5-42.6,56.1c-2.8,3.7-3.3,6.1-0.3,10
			c19.9,25.7,39.5,51.7,59.5,77.4c3.3,4.3,8.1,8,13.1,10.3c14.4,6.8,29.8,3.3,45,2.9C404.7,414.2,403.1,413.3,401.7,412.2z"/>
	</g>
</g>
</svg>
